<?xml version="1.0" encoding="utf-8"?>
<!-- Generator: Adobe Illustrator 23.0.3, SVG Export Plug-In . SVG Version: 6.00 Build 0)  -->
<svg version="1.1" xmlns="http://www.w3.org/2000/svg" xmlns:xlink="http://www.w3.org/1999/xlink" x="0px" y="0px"
	 viewBox="0 0 750 500" style="enable-background:new 0 0 750 500;" xml:space="preserve">
<style type="text/css">
	.st0{clip-path:url(#SVGID_2_);fill:url(#SVGID_3_);}
	.st1{clip-path:url(#SVGID_2_);}
	.st2{opacity:0.2;fill:none;stroke:#00FF8F;stroke-width:1.4768;stroke-miterlimit:10;}
	.st3{clip-path:url(#SVGID_2_);fill:url(#SVGID_4_);stroke:#00FFD4;stroke-miterlimit:10;}
	.st4{opacity:0.2;clip-path:url(#SVGID_2_);}
	.st5{fill:url(#SVGID_5_);}
	.st6{fill:url(#SVGID_6_);}
	.st7{fill:url(#SVGID_7_);}
	.st8{opacity:0.3;clip-path:url(#SVGID_2_);fill:url(#SVGID_8_);}
	.st9{opacity:0.3;clip-path:url(#SVGID_2_);}
	.st10{fill:url(#SVGID_9_);}
	.st11{opacity:0.2;clip-path:url(#SVGID_2_);fill:none;stroke:#00FF8F;stroke-width:2;stroke-miterlimit:10;}
	.st12{opacity:0.6;clip-path:url(#SVGID_2_);fill:url(#SVGID_10_);}
	.st13{fill:url(#SVGID_11_);}
	.st14{opacity:0.3;clip-path:url(#SVGID_2_);fill:url(#SVGID_12_);}
	.st15{opacity:0.3;clip-path:url(#SVGID_2_);fill:url(#SVGID_13_);}
	.st16{fill:url(#SVGID_14_);}
	.st17{opacity:0.3;clip-path:url(#SVGID_2_);fill:url(#SVGID_15_);}
	.st18{opacity:0.6;clip-path:url(#SVGID_2_);fill:url(#SVGID_16_);}
	.st19{opacity:0.3;clip-path:url(#SVGID_2_);fill:url(#SVGID_17_);}
	.st20{opacity:0.5;clip-path:url(#SVGID_2_);fill:url(#SVGID_18_);}
	.st21{opacity:0.47;fill:url(#SVGID_19_);stroke:#00FFD4;stroke-miterlimit:10;}
	.st22{display:none;}
	.st23{display:inline;opacity:0.2;}
	.st24{fill:#00FFB5;}
	.st25{display:inline;}
	.st26{fill:#FFFFFF;}
	.st27{font-family:'Lato-Regular';}
	.st28{font-size:10px;}
	.st29{letter-spacing:8;}
	.st30{display:inline;fill:none;}
	.st31{letter-spacing:1;}
	.st32{display:inline;opacity:0.39;fill:url(#SVGID_20_);}
	.st33{display:inline;fill:none;stroke:#00FFB5;stroke-linecap:round;stroke-linejoin:round;stroke-miterlimit:10;}
	.st34{font-family:'DeftoneStylus';}
	.st35{font-size:35.716px;}
	.st36{clip-path:url(#SVGID_22_);fill:url(#SVGID_23_);}
	.st37{clip-path:url(#SVGID_22_);}
	.st38{clip-path:url(#SVGID_22_);fill:url(#SVGID_24_);stroke:#00FFD4;stroke-miterlimit:10;}
	.st39{opacity:0.2;clip-path:url(#SVGID_22_);}
	.st40{fill:url(#SVGID_25_);}
	.st41{fill:url(#SVGID_26_);}
	.st42{fill:url(#SVGID_27_);}
	.st43{opacity:0.3;clip-path:url(#SVGID_22_);fill:url(#SVGID_28_);}
	.st44{opacity:0.3;clip-path:url(#SVGID_22_);}
	.st45{fill:url(#SVGID_29_);}
	.st46{opacity:0.2;clip-path:url(#SVGID_22_);fill:none;stroke:#00FF8F;stroke-width:2;stroke-miterlimit:10;}
	.st47{opacity:0.6;clip-path:url(#SVGID_22_);fill:url(#SVGID_30_);}
	.st48{fill:url(#SVGID_31_);}
	.st49{opacity:0.3;clip-path:url(#SVGID_22_);fill:url(#SVGID_32_);}
	.st50{opacity:0.3;clip-path:url(#SVGID_22_);fill:url(#SVGID_33_);}
	.st51{fill:url(#SVGID_34_);}
	.st52{opacity:0.3;clip-path:url(#SVGID_22_);fill:url(#SVGID_35_);}
	.st53{opacity:0.6;clip-path:url(#SVGID_22_);fill:url(#SVGID_36_);}
	.st54{opacity:0.3;clip-path:url(#SVGID_22_);fill:url(#SVGID_37_);}
	.st55{opacity:0.5;clip-path:url(#SVGID_22_);fill:url(#SVGID_38_);}
	.st56{opacity:0.47;fill:url(#SVGID_39_);stroke:#00FFD4;stroke-miterlimit:10;}
	.st57{opacity:0.2;}
	.st58{opacity:0.39;fill:url(#SVGID_40_);}
	.st59{fill:none;stroke:#00FFB5;stroke-linecap:round;stroke-linejoin:round;stroke-miterlimit:10;}
</style>
<g id="BACKGROUND_2">
	<g>
		<g>
			<defs>
				<rect id="SVGID_1_" x="0" width="750" height="500"/>
			</defs>
			<clipPath id="SVGID_2_">
				<use xlink:href="#SVGID_1_"  style="overflow:visible;"/>
			</clipPath>
			<linearGradient id="SVGID_3_" gradientUnits="userSpaceOnUse" x1="375.0001" y1="107" x2="375.0001" y2="1050.91">
				<stop  offset="1.408210e-03" style="stop-color:#190329"/>
				<stop  offset="8.735599e-02" style="stop-color:#180D2D"/>
				<stop  offset="0.2345" style="stop-color:#152938"/>
				<stop  offset="0.4251" style="stop-color:#11554A"/>
				<stop  offset="0.6517" style="stop-color:#0B9363"/>
				<stop  offset="0.9059" style="stop-color:#03E083"/>
				<stop  offset="1" style="stop-color:#00FF8F"/>
			</linearGradient>
			<rect x="0" class="st0" width="750" height="500"/>
			<g class="st1">
				<path class="st2" d="M171.6,56.6L80.4,94c-7.5,3.1-12.9,10-13.9,18l-13.3,97.7c-1.1,8.1,2.2,16.1,8.6,21.1l78,60.3
					c6.4,5,15.1,6.2,22.6,3.1l91.2-37.4c7.5-3.1,12.9-10,13.9-18l13.3-97.7c1.1-8.1-2.2-16.1-8.6-21.1l-78-60.3
					C187.8,54.7,179.2,53.5,171.6,56.6z"/>
				<path class="st2" d="M194.5,93.2l-71.5,7.5c-5.9,0.6-11,4.3-13.4,9.8l-29.2,65.6c-2.4,5.4-1.8,11.7,1.7,16.5l42.2,58.1
					c3.5,4.8,9.3,7.4,15.2,6.8L211,250c5.9-0.6,11-4.3,13.4-9.8l29.2-65.6c2.4-5.4,1.8-11.7-1.7-16.5L209.7,100
					C206.2,95.2,200.4,92.6,194.5,93.2z"/>
				<path class="st2" d="M198,129.3l-45.4-7.5c-3.7-0.6-7.5,0.8-10,3.7l-29.2,35.6c-2.4,2.9-3.1,6.9-1.7,10.5l16.2,43.1
					c1.3,3.6,4.5,6.1,8.2,6.8l45.4,7.5c3.7,0.6,7.5-0.8,10-3.7l29.2-35.6c2.4-2.9,3.1-6.9,1.7-10.5l-16.2-43.1
					C204.8,132.5,201.7,129.9,198,129.3z"/>
			</g>
			<linearGradient id="SVGID_4_" gradientUnits="userSpaceOnUse" x1="375.0001" y1="1" x2="375.0001" y2="944.91">
				<stop  offset="1.408210e-03" style="stop-color:#190329"/>
				<stop  offset="8.735599e-02" style="stop-color:#180D2D;stop-opacity:0.9139"/>
				<stop  offset="0.2345" style="stop-color:#152938;stop-opacity:0.7666"/>
				<stop  offset="0.4251" style="stop-color:#11554A;stop-opacity:0.5757"/>
				<stop  offset="0.6517" style="stop-color:#0B9363;stop-opacity:0.3488"/>
				<stop  offset="0.9059" style="stop-color:#03E083;stop-opacity:9.426832e-02"/>
				<stop  offset="1" style="stop-color:#00FF8F;stop-opacity:0"/>
			</linearGradient>
			<rect x="0" class="st3" width="750" height="500"/>
			<g class="st4">
				<linearGradient id="SVGID_5_" gradientUnits="userSpaceOnUse" x1="569.675" y1="414.5991" x2="509.675" y2="511.5992">
					<stop  offset="1.800060e-03" style="stop-color:#190329;stop-opacity:0"/>
					<stop  offset="0.1124" style="stop-color:#152D3A;stop-opacity:0.1108"/>
					<stop  offset="0.2959" style="stop-color:#0F6C53;stop-opacity:0.2946"/>
					<stop  offset="0.4715" style="stop-color:#09A069;stop-opacity:0.4706"/>
					<stop  offset="0.6344" style="stop-color:#05C979;stop-opacity:0.6337"/>
					<stop  offset="0.7817" style="stop-color:#02E785;stop-opacity:0.7813"/>
					<stop  offset="0.9084" style="stop-color:#01F98C;stop-opacity:0.9083"/>
					<stop  offset="1" style="stop-color:#00FF8F"/>
				</linearGradient>
				<path class="st5" d="M475.1,726.4c-8.1,0-16.2-2.6-22.7-7.7l-124.4-96.3c-10.5-8.1-15.8-21.3-14.1-34.3L335,432.1
					c1.8-13.1,10.5-24.3,22.7-29.4l145.6-59.6c12.2-5,26.3-3.1,36.8,5l124.4,96.3c10.5,8.1,15.8,21.3,14.1,34.3l-21.2,155.9
					c-1.8,13.1-10.5,24.3-22.7,29.4l-145.6,59.6C484.6,725.5,479.8,726.4,475.1,726.4z M503.6,343.8l0.3,0.7l-145.6,59.6
					c-11.7,4.8-20.1,15.6-21.8,28.2l-21.2,155.9c-1.7,12.6,3.5,25.2,13.5,33l124.4,96.3c10,7.8,23.6,9.6,35.3,4.8l145.6-59.6
					c11.7-4.8,20.1-15.6,21.8-28.2l21.2-155.9c1.7-12.6-3.5-25.2-13.5-33l-124.4-96.3c-10-7.8-23.6-9.6-35.3-4.8L503.6,343.8z"/>
			</g>
			<g class="st4">
				<linearGradient id="SVGID_6_" gradientUnits="userSpaceOnUse" x1="569.6751" y1="414.5989" x2="509.6752" y2="511.599">
					<stop  offset="1.800060e-03" style="stop-color:#190329;stop-opacity:0"/>
					<stop  offset="0.1124" style="stop-color:#152D3A;stop-opacity:0.1108"/>
					<stop  offset="0.2959" style="stop-color:#0F6C53;stop-opacity:0.2946"/>
					<stop  offset="0.4715" style="stop-color:#09A069;stop-opacity:0.4706"/>
					<stop  offset="0.6344" style="stop-color:#05C979;stop-opacity:0.6337"/>
					<stop  offset="0.7817" style="stop-color:#02E785;stop-opacity:0.7813"/>
					<stop  offset="0.9084" style="stop-color:#01F98C;stop-opacity:0.9083"/>
					<stop  offset="1" style="stop-color:#00FF8F"/>
				</linearGradient>
				<path class="st6" d="M449.5,665.4c-8.7,0-16.9-4.2-22.1-11.2l-67.4-92.8c-5.7-7.9-6.8-18.2-2.8-27.1l46.7-104.7
					c4-8.9,12.4-15,22.1-16L540,401.5c9.7-1,19.2,3.2,24.9,11.1l67.4,92.8c5.7,7.9,6.8,18.2,2.8,27.1l-46.7,104.7
					c-4,8.9-12.4,15-22.1,16l-114.1,11.9C451.4,665.3,450.5,665.4,449.5,665.4z M540.2,403l-114.1,11.9c-9.1,1-17.1,6.8-20.9,15.1
					l-46.7,104.7c-3.7,8.4-2.7,18.2,2.7,25.6l67.4,92.8c5.4,7.4,14.4,11.4,23.5,10.5l114.1-11.9c9.1-1,17.1-6.8,20.9-15.1
					l46.7-104.7c3.7-8.4,2.7-18.2-2.7-25.6l-67.4-92.8C558.4,406.1,549.3,402,540.2,403L540.2,403z"/>
			</g>
			<g class="st4">
				<linearGradient id="SVGID_7_" gradientUnits="userSpaceOnUse" x1="569.6751" y1="414.5991" x2="509.6752" y2="511.5991">
					<stop  offset="1.800060e-03" style="stop-color:#190329;stop-opacity:0"/>
					<stop  offset="0.1124" style="stop-color:#152D3A;stop-opacity:0.1108"/>
					<stop  offset="0.2959" style="stop-color:#0F6C53;stop-opacity:0.2946"/>
					<stop  offset="0.4715" style="stop-color:#09A069;stop-opacity:0.4706"/>
					<stop  offset="0.6344" style="stop-color:#05C979;stop-opacity:0.6337"/>
					<stop  offset="0.7817" style="stop-color:#02E785;stop-opacity:0.7813"/>
					<stop  offset="0.9084" style="stop-color:#01F98C;stop-opacity:0.9083"/>
					<stop  offset="1" style="stop-color:#00FF8F"/>
				</linearGradient>
				<path class="st7" d="M522,619.8c-1,0-1.9-0.1-2.9-0.2l-72.4-12c-6.2-1-11.5-5.3-13.7-11.2l-25.8-68.7
					c-2.2-5.9-1.1-12.6,2.9-17.5l46.6-56.7c4-4.9,10.4-7.3,16.6-6.2l72.4,12c6.2,1,11.5,5.3,13.7,11.2l25.8,68.7
					c2.2,5.9,1.1,12.6-2.9,17.5l-46.6,56.7C532.3,617.5,527.3,619.8,522,619.8z M470.4,448.4c-4.8,0-9.5,2.2-12.6,5.9l-46.6,56.7
					c-3.7,4.5-4.7,10.6-2.6,16l25.8,68.7c2,5.4,6.8,9.4,12.6,10.3l72.4,12c5.7,0.9,11.5-1.2,15.2-5.7l46.6-56.7
					c3.7-4.5,4.7-10.6,2.7-16L558,470.9c-2-5.4-6.8-9.4-12.6-10.3l-72.4-12C472.1,448.5,471.2,448.4,470.4,448.4z"/>
			</g>
			
				<linearGradient id="SVGID_8_" gradientUnits="userSpaceOnUse" x1="895.4053" y1="-1445.0729" x2="446.3523" y2="-996.0198" gradientTransform="matrix(0.9557 -0.2944 0.2944 0.9557 320.1167 1546.3196)">
				<stop  offset="1.800060e-03" style="stop-color:#190329;stop-opacity:0"/>
				<stop  offset="8.846048e-02" style="stop-color:#180B2C;stop-opacity:8.681670e-02"/>
				<stop  offset="0.2211" style="stop-color:#162035;stop-opacity:0.2197"/>
				<stop  offset="0.3832" style="stop-color:#134343;stop-opacity:0.3821"/>
				<stop  offset="0.5686" style="stop-color:#0E7457;stop-opacity:0.5678"/>
				<stop  offset="0.7737" style="stop-color:#08B270;stop-opacity:0.7733"/>
				<stop  offset="0.9923" style="stop-color:#00FC8E;stop-opacity:0.9923"/>
				<stop  offset="1" style="stop-color:#00FF8F"/>
			</linearGradient>
			<path class="st8" d="M676.5-210l-266,82c-22,6.8-38.7,24.8-43.8,47.2l-62,271.4c-5.1,22.4,2.1,45.9,19,61.5l204,189.4
				c16.9,15.6,40.8,21.1,62.8,14.3l266-82c22-6.8,38.7-24.8,43.8-47.2l62-271.4c5.1-22.4-2.1-45.9-19-61.5l-204-189.4
				C722.4-211.3,698.5-216.8,676.5-210z"/>
			<g class="st9">
				<linearGradient id="SVGID_9_" gradientUnits="userSpaceOnUse" x1="601.5931" y1="-62.5953" x2="671.5932" y2="212.4047">
					<stop  offset="1.800060e-03" style="stop-color:#190329;stop-opacity:0"/>
					<stop  offset="0.1124" style="stop-color:#152D3A;stop-opacity:0.1108"/>
					<stop  offset="0.2959" style="stop-color:#0F6C53;stop-opacity:0.2946"/>
					<stop  offset="0.4715" style="stop-color:#09A069;stop-opacity:0.4706"/>
					<stop  offset="0.6344" style="stop-color:#05C979;stop-opacity:0.6337"/>
					<stop  offset="0.7817" style="stop-color:#02E785;stop-opacity:0.7813"/>
					<stop  offset="0.9084" style="stop-color:#01F98C;stop-opacity:0.9083"/>
					<stop  offset="1" style="stop-color:#00FF8F"/>
				</linearGradient>
				<path class="st10" d="M603.9,462.6c-15.1,0-30.1-4.9-42.3-14.4L328.8,268.1c-19.5-15.1-29.5-39.5-26.2-63.9l39.6-291.7
					c3.3-24.4,19.5-45.3,42.3-54.6l272.4-111.6c22.8-9.3,49-5.8,68.4,9.3L958.1-64.3c19.5,15.1,29.5,39.5,26.2,63.9l-39.6,291.7
					c-3.3,24.4-19.5,45.3-42.3,54.6L630.1,457.5C621.7,460.9,612.8,462.6,603.9,462.6z M657.2-252.8l0.4,0.9L385.2-140.3
					c-22.1,9.1-37.8,29.4-41,53l-39.6,291.7c-3.2,23.7,6.5,47.4,25.4,62.1l232.8,180.1c18.9,14.6,44.4,18.1,66.5,9l272.4-111.6
					c22.1-9.1,37.8-29.4,41-53L982.3-0.7c3.2-23.7-6.5-47.4-25.4-62.1L724.1-242.8c-18.9-14.6-44.4-18.1-66.5-9L657.2-252.8z"/>
			</g>
			<path class="st11" d="M48.1-130.9L-97.1-71.4c-12,4.9-20.5,15.9-22.2,28.7l-21.1,155.5c-1.7,12.8,3.5,25.6,13.8,33.6l124.1,96
				c10.3,7.9,24,9.8,36,4.9l145.2-59.5c12-4.9,20.5-15.9,22.2-28.7L222,3.6c1.7-12.8-3.5-25.6-13.8-33.6L84.1-126
				C73.8-134,60.1-135.8,48.1-130.9z"/>
			<path class="st11" d="M128.8,318.7l-145.2,59.5c-12,4.9-20.5,15.9-22.2,28.7l-21.1,155.5c-1.7,12.8,3.5,25.6,13.8,33.6l124.1,96
				c10.3,7.9,24,9.8,36,4.9l145.2-59.5c12-4.9,20.5-15.9,22.2-28.7l21.1-155.5c1.7-12.8-3.5-25.6-13.8-33.6l-124.1-96
				C154.5,315.7,140.8,313.8,128.8,318.7z"/>
			
				<linearGradient id="SVGID_10_" gradientUnits="userSpaceOnUse" x1="1449.7227" y1="1972.6221" x2="1135.8575" y2="2286.4873" gradientTransform="matrix(0.884 0.4676 -0.4676 0.884 487.1187 -2358.7844)">
				<stop  offset="1.800060e-03" style="stop-color:#190329;stop-opacity:0"/>
				<stop  offset="8.761597e-02" style="stop-color:#180B2C;stop-opacity:7.714389e-02"/>
				<stop  offset="0.219" style="stop-color:#152035;stop-opacity:0.1952"/>
				<stop  offset="0.3795" style="stop-color:#104343;stop-opacity:0.3395"/>
				<stop  offset="0.5629" style="stop-color:#097357;stop-opacity:0.5044"/>
				<stop  offset="0.7634" style="stop-color:#00B171;stop-opacity:0.6846"/>
				<stop  offset="0.7739" style="stop-color:#00B472;stop-opacity:0.6941"/>
				<stop  offset="0.9825" style="stop-color:#00F98D;stop-opacity:0.9763"/>
				<stop  offset="1" style="stop-color:#00FF8F"/>
			</linearGradient>
			<path class="st12" d="M821.2-15.4l-172-91c-14.2-7.5-31.3-6.9-45,1.7L439.5-1.2c-13.6,8.5-21.6,23.7-21,39.8l7.2,194.4
				c0.6,16.1,9.7,30.6,23.9,38.1l172,91c14.2,7.5,31.3,6.9,45-1.7l164.8-103.5c13.6-8.5,21.6-23.7,21-39.8l-7.2-194.4
				C844.6,6.7,835.4-7.9,821.2-15.4z"/>
			<g class="st9">
				<linearGradient id="SVGID_11_" gradientUnits="userSpaceOnUse" x1="532.8566" y1="-46.6077" x2="744.8567" y2="200.3922">
					<stop  offset="1.800060e-03" style="stop-color:#190329;stop-opacity:0"/>
					<stop  offset="0.1124" style="stop-color:#152D3A;stop-opacity:0.1108"/>
					<stop  offset="0.2959" style="stop-color:#0F6C53;stop-opacity:0.2946"/>
					<stop  offset="0.4715" style="stop-color:#09A069;stop-opacity:0.4706"/>
					<stop  offset="0.6344" style="stop-color:#05C979;stop-opacity:0.6337"/>
					<stop  offset="0.7817" style="stop-color:#02E785;stop-opacity:0.7813"/>
					<stop  offset="0.9084" style="stop-color:#01F98C;stop-opacity:0.9083"/>
					<stop  offset="1" style="stop-color:#00FF8F"/>
				</linearGradient>
				<path class="st13" d="M621,356.4c-11.1,0-22.2-3.6-31.3-10.6l-171.9-133c-14.4-11.1-21.8-29.2-19.3-47.2l29.2-215.4
					c2.4-18,14.4-33.5,31.2-40.3l201.1-82.4c16.8-6.9,36.2-4.3,50.5,6.9l171.9,133c14.4,11.1,21.8,29.2,19.3,47.2l-29.2,215.4
					c-2.4,18-14.4,33.5-31.2,40.3l-201.1,82.4C634.1,355.2,627.5,356.4,621,356.4z M660.6-171.1L459.5-88.7
					c-16.3,6.7-27.9,21.7-30.3,39.2L400,165.8c-2.4,17.5,4.8,35,18.8,45.8l171.9,133c13.9,10.8,32.8,13.3,49.1,6.7l201.1-82.4
					c16.3-6.7,27.9-21.7,30.3-39.2l29.2-215.4c2.4-17.5-4.8-35-18.8-45.8l-171.9-133C695.8-175.3,677-177.8,660.6-171.1L660.6-171.1
					z"/>
			</g>
			
				<linearGradient id="SVGID_12_" gradientUnits="userSpaceOnUse" x1="3289.7556" y1="3736.4011" x2="3083.3286" y2="3942.8279" gradientTransform="matrix(0.4862 0.8738 -0.8738 0.4862 2409.4233 -4535.8286)">
				<stop  offset="1.800060e-03" style="stop-color:#190329;stop-opacity:0"/>
				<stop  offset="8.846048e-02" style="stop-color:#180B2C;stop-opacity:8.681670e-02"/>
				<stop  offset="0.2211" style="stop-color:#162035;stop-opacity:0.2197"/>
				<stop  offset="0.3832" style="stop-color:#134343;stop-opacity:0.3821"/>
				<stop  offset="0.5686" style="stop-color:#0E7457;stop-opacity:0.5678"/>
				<stop  offset="0.7737" style="stop-color:#08B270;stop-opacity:0.7733"/>
				<stop  offset="0.9923" style="stop-color:#00FC8E;stop-opacity:0.9923"/>
				<stop  offset="1" style="stop-color:#00FF8F"/>
			</linearGradient>
			<path class="st14" d="M787.2,111.5L725-0.3c-5.1-9.2-14.8-15-25.4-15.2l-127.9-2c-10.6-0.2-20.4,5.3-25.9,14.4l-65.7,109.8
				c-5.4,9.1-5.6,20.3-0.5,29.6L541.8,248c5.1,9.2,14.8,15,25.4,15.2l127.9,2c10.6,0.2,20.4-5.3,25.9-14.4l65.7-109.8
				C792.2,132,792.3,120.7,787.2,111.5z"/>
			
				<linearGradient id="SVGID_13_" gradientUnits="userSpaceOnUse" x1="6982.2788" y1="3799.3879" x2="6871.71" y2="3909.957" gradientTransform="matrix(-0.3408 0.9401 -0.9401 -0.3408 6610.8828 -5089.5298)">
				<stop  offset="1.800060e-03" style="stop-color:#190329;stop-opacity:0"/>
				<stop  offset="8.846048e-02" style="stop-color:#180B2C;stop-opacity:8.681670e-02"/>
				<stop  offset="0.2211" style="stop-color:#162035;stop-opacity:0.2197"/>
				<stop  offset="0.3832" style="stop-color:#134343;stop-opacity:0.3821"/>
				<stop  offset="0.5686" style="stop-color:#0E7457;stop-opacity:0.5678"/>
				<stop  offset="0.7737" style="stop-color:#08B270;stop-opacity:0.7733"/>
				<stop  offset="0.9923" style="stop-color:#00FC8E;stop-opacity:0.9923"/>
				<stop  offset="1" style="stop-color:#00FF8F"/>
			</linearGradient>
			<path class="st15" d="M692.4,181.7l23.4-64.4c1.9-5.3,0.9-11.3-2.8-15.6l-44.1-52.4c-3.6-4.3-9.3-6.4-14.9-5.4l-67.5,12
				c-5.6,1-10.2,4.9-12.1,10.2L551,130.5c-1.9,5.3-0.9,11.3,2.8,15.6l44.1,52.4c3.6,4.3,9.3,6.4,14.9,5.4l67.5-12
				C685.9,190.9,690.5,187,692.4,181.7z"/>
			<g class="st9">
				<linearGradient id="SVGID_14_" gradientUnits="userSpaceOnUse" x1="715.5667" y1="36.1336" x2="471.5671" y2="279.1328">
					<stop  offset="1.800060e-03" style="stop-color:#190329;stop-opacity:0"/>
					<stop  offset="0.1124" style="stop-color:#152D3A;stop-opacity:0.1108"/>
					<stop  offset="0.2959" style="stop-color:#0F6C53;stop-opacity:0.2946"/>
					<stop  offset="0.4715" style="stop-color:#09A069;stop-opacity:0.4706"/>
					<stop  offset="0.6344" style="stop-color:#05C979;stop-opacity:0.6337"/>
					<stop  offset="0.7817" style="stop-color:#02E785;stop-opacity:0.7813"/>
					<stop  offset="0.9084" style="stop-color:#01F98C;stop-opacity:0.9083"/>
					<stop  offset="1" style="stop-color:#00FF8F"/>
				</linearGradient>
				<path class="st16" d="M627.6,276.3c-5.6,0-11.1-1.5-16-4.6L504,204.4c-9.1-5.7-14.5-15.9-14.1-26.6L494.3,51
					c0.4-10.7,6.5-20.5,15.9-25.5l112.1-59.6c9.5-5,21-4.6,30.1,1.1l107.7,67.3c9.1,5.7,14.5,15.9,14.1,26.6l-4.4,126.9
					c-0.4,10.7-6.5,20.5-15.9,25.5l-112.1,59.6C637.3,275.1,632.5,276.3,627.6,276.3z M623-32.9L510.9,26.8
					c-9,4.8-14.8,14.1-15.2,24.3l-4.4,126.9c-0.4,10.2,4.8,19.9,13.4,25.3l107.7,67.3c8.6,5.4,19.6,5.8,28.6,1l112.1-59.6
					c9-4.8,14.8-14.1,15.2-24.3l4.4-126.9c0.4-10.2-4.8-19.9-13.4-25.3L651.6-31.9C643-37.3,632-37.6,623-32.9L623-32.9z"/>
			</g>
			
				<linearGradient id="SVGID_15_" gradientUnits="userSpaceOnUse" x1="8872.4736" y1="2238.4165" x2="8614.7979" y2="2496.0925" gradientTransform="matrix(-0.813 0.5822 -0.5822 -0.813 8613.6875 -2691.7151)">
				<stop  offset="1.800060e-03" style="stop-color:#190329;stop-opacity:0"/>
				<stop  offset="8.846048e-02" style="stop-color:#180B2C;stop-opacity:8.681670e-02"/>
				<stop  offset="0.2211" style="stop-color:#162035;stop-opacity:0.2197"/>
				<stop  offset="0.3832" style="stop-color:#134343;stop-opacity:0.3821"/>
				<stop  offset="0.5686" style="stop-color:#0E7457;stop-opacity:0.5678"/>
				<stop  offset="0.7737" style="stop-color:#08B270;stop-opacity:0.7733"/>
				<stop  offset="0.9923" style="stop-color:#00FC8E;stop-opacity:0.9923"/>
				<stop  offset="1" style="stop-color:#00FF8F"/>
			</linearGradient>
			<path class="st17" d="M157.7,701.3l129.9-93c10.7-7.7,16.5-20.5,15.3-33.6l-15.6-159c-1.3-13.1-9.5-24.6-21.5-30l-145.5-66
				c-12-5.4-26-4.1-36.8,3.6l-129.9,93c-10.7,7.7-16.5,20.5-15.3,33.6l15.6,159c1.3,13.1,9.5,24.6,21.5,30l145.5,66
				C133,710.4,147,709,157.7,701.3z"/>
			
				<linearGradient id="SVGID_16_" gradientUnits="userSpaceOnUse" x1="9651.8633" y1="-1140.9603" x2="9471.7627" y2="-960.8602" gradientTransform="matrix(-0.9866 -0.1632 0.1632 -0.9866 9692.9775 1064.8799)">
				<stop  offset="1.800060e-03" style="stop-color:#190329;stop-opacity:0"/>
				<stop  offset="8.846048e-02" style="stop-color:#180B2C;stop-opacity:8.681670e-02"/>
				<stop  offset="0.2211" style="stop-color:#162035;stop-opacity:0.2197"/>
				<stop  offset="0.3832" style="stop-color:#134343;stop-opacity:0.3821"/>
				<stop  offset="0.5686" style="stop-color:#0E7457;stop-opacity:0.5678"/>
				<stop  offset="0.7737" style="stop-color:#08B270;stop-opacity:0.7733"/>
				<stop  offset="0.9923" style="stop-color:#00FC8E;stop-opacity:0.9923"/>
				<stop  offset="1" style="stop-color:#00FF8F"/>
			</linearGradient>
			<path class="st18" d="M34.9,637.1L145,655.3c9.1,1.5,18.3-2,24.2-9.1l70.9-86.3c5.9-7.1,7.5-16.8,4.2-25.5L205,430
				c-3.2-8.6-10.9-14.9-20-16.4L74.9,395.4c-9.1-1.5-18.3,2-24.2,9.1l-70.9,86.3c-5.9,7.1-7.5,16.8-4.2,25.5l39.3,104.5
				C18.2,629.3,25.8,635.6,34.9,637.1z"/>
			
				<linearGradient id="SVGID_17_" gradientUnits="userSpaceOnUse" x1="9382.3242" y1="-1572.8312" x2="9180.3271" y2="-1370.8339" gradientTransform="matrix(-0.9336 -0.3582 0.3582 -0.9336 9287.5352 2025.3314)">
				<stop  offset="1.800060e-03" style="stop-color:#190329;stop-opacity:0"/>
				<stop  offset="8.846048e-02" style="stop-color:#180B2C;stop-opacity:8.681670e-02"/>
				<stop  offset="0.2211" style="stop-color:#162035;stop-opacity:0.2197"/>
				<stop  offset="0.3832" style="stop-color:#134343;stop-opacity:0.3821"/>
				<stop  offset="0.5686" style="stop-color:#0E7457;stop-opacity:0.5678"/>
				<stop  offset="0.7737" style="stop-color:#08B270;stop-opacity:0.7733"/>
				<stop  offset="0.9923" style="stop-color:#00FC8E;stop-opacity:0.9923"/>
				<stop  offset="1" style="stop-color:#00FF8F"/>
			</linearGradient>
			<path class="st19" d="M-40,193l116.9,44.9c9.7,3.7,20.6,2,28.6-4.5l97.3-78.8c8-6.5,12-16.8,10.4-27L193.5,3.8
				C191.9-6.4,185-15,175.3-18.7L58.4-63.5c-9.7-3.7-20.6-2-28.6,4.5l-97.3,78.8c-8,6.5-12,16.8-10.4,27l19.6,123.7
				C-56.6,180.7-49.7,189.3-40,193z"/>
			
				<linearGradient id="SVGID_18_" gradientUnits="userSpaceOnUse" x1="8003.4209" y1="-3636.6135" x2="7870.5835" y2="-3503.7761" gradientTransform="matrix(-0.5875 -0.8092 0.8092 -0.5875 7639.2808 4415.4287)">
				<stop  offset="1.800060e-03" style="stop-color:#190329;stop-opacity:0"/>
				<stop  offset="8.846048e-02" style="stop-color:#180B2C;stop-opacity:8.681670e-02"/>
				<stop  offset="0.2211" style="stop-color:#162035;stop-opacity:0.2197"/>
				<stop  offset="0.3832" style="stop-color:#134343;stop-opacity:0.3821"/>
				<stop  offset="0.5686" style="stop-color:#0E7457;stop-opacity:0.5678"/>
				<stop  offset="0.7737" style="stop-color:#08B270;stop-opacity:0.7733"/>
				<stop  offset="0.9923" style="stop-color:#00FC8E;stop-opacity:0.9923"/>
				<stop  offset="1" style="stop-color:#00FF8F"/>
			</linearGradient>
			<path class="st20" d="M-29.7,106.9l48.4,66.6c4,5.5,10.6,8.5,17.4,7.8l81.9-8.6c6.8-0.7,12.6-5,15.4-11.2l33.5-75.2
				c2.8-6.2,2-13.4-2-18.9L116.6,0.8c-4-5.5-10.6-8.5-17.4-7.8L17.3,1.6c-6.8,0.7-12.6,5-15.4,11.2L-31.7,88
				C-34.4,94.2-33.7,101.4-29.7,106.9z"/>
		</g>
		
			<radialGradient id="SVGID_19_" cx="375.0001" cy="250" r="492.5908" gradientTransform="matrix(1 5.845108e-05 -2.539343e-05 0.4344 6.348865e-03 141.3683)" gradientUnits="userSpaceOnUse">
			<stop  offset="0" style="stop-color:#190329;stop-opacity:0"/>
			<stop  offset="1" style="stop-color:#190329"/>
		</radialGradient>
		<rect x="0" class="st21" width="750" height="500"/>
		<g class="st22">
			<g class="st23">
				<g>
					<path class="st24" d="M233.7,367.7h-90.2c-2.4,0-4.4-2-4.4-4.4v-17.2c0-2.4,2-4.4,4.4-4.4h90.2c2.4,0,4.4,2,4.4,4.4v17.2
						C238.1,365.8,236.2,367.7,233.7,367.7z"/>
				</g>
			</g>
			<g class="st25">
				<text transform="matrix(1 0 0 1 155.392 358.9584)" class="st26 st27 st28 st29">START</text>
			</g>
			<rect x="137.1" y="281.9" class="st30" width="266.1" height="54"/>
			<text transform="matrix(1 0 0 1 137.1322 289.275)" class="st25"><tspan x="0" y="0" class="st26 st27 st28 st31">Lorem ipsum dolor sit amet, consectetuer </tspan><tspan x="0" y="16" class="st26 st27 st28 st31">adipiscing elit, sed diam nonummy nibh.</tspan></text>
			<radialGradient id="SVGID_20_" cx="122.5398" cy="301.3966" r="116.0382" gradientUnits="userSpaceOnUse">
				<stop  offset="0" style="stop-color:#190329"/>
				<stop  offset="0.9256" style="stop-color:#190329;stop-opacity:0"/>
			</radialGradient>
			<rect x="0" y="226.4" class="st32" width="122.5" height="150.1"/>
			<line class="st33" x1="122.5" y1="226.4" x2="122.5" y2="376.4"/>
			<g class="st25">
				<text transform="matrix(1 0 0 1 124.6854 255.5071)" class="st24 st34 st35">Landing</text>
			</g>
		</g>
	</g>
</g>
<g id="BACKGROUND_1">
	<g>
		<g>
			<defs>
				<rect id="SVGID_21_" x="125" y="-516" width="500" height="500"/>
			</defs>
			<clipPath id="SVGID_22_">
				<use xlink:href="#SVGID_21_"  style="overflow:visible;"/>
			</clipPath>
			<linearGradient id="SVGID_23_" gradientUnits="userSpaceOnUse" x1="375.0003" y1="-408.9739" x2="375.0003" y2="534.9361">
				<stop  offset="1.408210e-03" style="stop-color:#190329"/>
				<stop  offset="8.735599e-02" style="stop-color:#180D2D"/>
				<stop  offset="0.2345" style="stop-color:#152938"/>
				<stop  offset="0.4251" style="stop-color:#11554A"/>
				<stop  offset="0.6517" style="stop-color:#0B9363"/>
				<stop  offset="0.9059" style="stop-color:#03E083"/>
				<stop  offset="1" style="stop-color:#00FF8F"/>
			</linearGradient>
			<rect x="125" y="-516" class="st36" width="500" height="500"/>
			<g class="st37">
				<path class="st2" d="M225.9-459.4L134.7-422c-7.5,3.1-12.9,10-13.9,18l-13.3,97.7c-1.1,8.1,2.2,16.1,8.6,21.1l78,60.3
					c6.4,5,15.1,6.2,22.6,3.1l91.2-37.4c7.5-3.1,12.9-10,13.9-18l13.3-97.7c1.1-8.1-2.2-16.1-8.6-21.1l-78-60.3
					C242.1-461.3,233.5-462.5,225.9-459.4z"/>
				<path class="st2" d="M248.8-422.8l-71.5,7.5c-5.9,0.6-11,4.3-13.4,9.8l-29.2,65.6c-2.4,5.4-1.8,11.7,1.7,16.5l42.2,58.1
					c3.5,4.8,9.3,7.4,15.2,6.8l71.5-7.5c5.9-0.6,11-4.3,13.4-9.8l29.2-65.6c2.4-5.4,1.8-11.7-1.7-16.5L264-416
					C260.5-420.8,254.7-423.4,248.8-422.8z"/>
				<path class="st2" d="M252.2-386.7l-45.4-7.5c-3.7-0.6-7.5,0.8-10,3.7l-29.2,35.6c-2.4,2.9-3.1,6.9-1.7,10.5l16.2,43.1
					c1.3,3.6,4.5,6.1,8.2,6.8l45.4,7.5c3.7,0.6,7.5-0.8,10-3.7l29.2-35.6c2.4-2.9,3.1-6.9,1.7-10.5l-16.2-43.1
					C259.1-383.5,256-386,252.2-386.7z"/>
			</g>
			<linearGradient id="SVGID_24_" gradientUnits="userSpaceOnUse" x1="375.0003" y1="-514.9739" x2="375.0003" y2="428.9361">
				<stop  offset="1.408210e-03" style="stop-color:#190329"/>
				<stop  offset="8.735599e-02" style="stop-color:#180D2D;stop-opacity:0.9139"/>
				<stop  offset="0.2345" style="stop-color:#152938;stop-opacity:0.7666"/>
				<stop  offset="0.4251" style="stop-color:#11554A;stop-opacity:0.5757"/>
				<stop  offset="0.6517" style="stop-color:#0B9363;stop-opacity:0.3488"/>
				<stop  offset="0.9059" style="stop-color:#03E083;stop-opacity:9.426832e-02"/>
				<stop  offset="1" style="stop-color:#00FF8F;stop-opacity:0"/>
			</linearGradient>
			<rect x="125" y="-516" class="st38" width="500" height="500"/>
			<g class="st39">
				<linearGradient id="SVGID_25_" gradientUnits="userSpaceOnUse" x1="623.9619" y1="-101.3748" x2="563.9619" y2="-4.3747">
					<stop  offset="1.800060e-03" style="stop-color:#190329;stop-opacity:0"/>
					<stop  offset="0.1124" style="stop-color:#152D3A;stop-opacity:0.1108"/>
					<stop  offset="0.2959" style="stop-color:#0F6C53;stop-opacity:0.2946"/>
					<stop  offset="0.4715" style="stop-color:#09A069;stop-opacity:0.4706"/>
					<stop  offset="0.6344" style="stop-color:#05C979;stop-opacity:0.6337"/>
					<stop  offset="0.7817" style="stop-color:#02E785;stop-opacity:0.7813"/>
					<stop  offset="0.9084" style="stop-color:#01F98C;stop-opacity:0.9083"/>
					<stop  offset="1" style="stop-color:#00FF8F"/>
				</linearGradient>
				<path class="st40" d="M529.4,210.4c-8.1,0-16.2-2.6-22.7-7.7l-124.4-96.3c-10.5-8.1-15.8-21.3-14.1-34.3l21.2-155.9
					c1.8-13.1,10.5-24.3,22.7-29.4l145.6-59.6c12.2-5,26.3-3.1,36.8,5l124.4,96.3c10.5,8.1,15.8,21.3,14.1,34.3l-21.2,155.9
					c-1.8,13.1-10.5,24.3-22.7,29.4l-145.6,59.6C538.9,209.5,534.1,210.4,529.4,210.4z M557.9-172.2l0.3,0.7l-145.6,59.6
					c-11.7,4.8-20.1,15.6-21.8,28.2L369.6,72.2c-1.7,12.6,3.5,25.2,13.5,33l124.4,96.3c10,7.8,23.6,9.6,35.3,4.8l145.6-59.6
					c11.7-4.8,20.1-15.6,21.8-28.2l21.2-155.9c1.7-12.6-3.5-25.2-13.5-33l-124.4-96.3c-10-7.8-23.6-9.6-35.3-4.8L557.9-172.2z"/>
			</g>
			<g class="st39">
				<linearGradient id="SVGID_26_" gradientUnits="userSpaceOnUse" x1="623.962" y1="-101.375" x2="563.962" y2="-4.3749">
					<stop  offset="1.800060e-03" style="stop-color:#190329;stop-opacity:0"/>
					<stop  offset="0.1124" style="stop-color:#152D3A;stop-opacity:0.1108"/>
					<stop  offset="0.2959" style="stop-color:#0F6C53;stop-opacity:0.2946"/>
					<stop  offset="0.4715" style="stop-color:#09A069;stop-opacity:0.4706"/>
					<stop  offset="0.6344" style="stop-color:#05C979;stop-opacity:0.6337"/>
					<stop  offset="0.7817" style="stop-color:#02E785;stop-opacity:0.7813"/>
					<stop  offset="0.9084" style="stop-color:#01F98C;stop-opacity:0.9083"/>
					<stop  offset="1" style="stop-color:#00FF8F"/>
				</linearGradient>
				<path class="st41" d="M503.8,149.4c-8.7,0-16.9-4.2-22.1-11.2l-67.4-92.8c-5.7-7.9-6.8-18.2-2.8-27.1l46.7-104.7
					c4-8.9,12.4-15,22.1-16l114.1-11.9c9.7-1,19.2,3.2,24.9,11.1l67.4,92.8c5.7,7.9,6.8,18.2,2.8,27.1l-46.7,104.7
					c-4,8.9-12.4,15-22.1,16l-114.1,11.9C505.7,149.4,504.8,149.4,503.8,149.4z M594.5-113L480.4-101c-9.1,1-17.1,6.8-20.9,15.1
					L412.9,18.9c-3.7,8.4-2.7,18.2,2.7,25.6l67.4,92.8c5.4,7.4,14.4,11.4,23.5,10.5l114.1-11.9c9.1-1,17.1-6.8,20.9-15.1L688.1,16
					c3.7-8.4,2.7-18.2-2.7-25.6L618-102.5C612.6-109.9,603.6-113.9,594.5-113L594.5-113z"/>
			</g>
			<g class="st39">
				<linearGradient id="SVGID_27_" gradientUnits="userSpaceOnUse" x1="623.962" y1="-101.3749" x2="563.9621" y2="-4.3749">
					<stop  offset="1.800060e-03" style="stop-color:#190329;stop-opacity:0"/>
					<stop  offset="0.1124" style="stop-color:#152D3A;stop-opacity:0.1108"/>
					<stop  offset="0.2959" style="stop-color:#0F6C53;stop-opacity:0.2946"/>
					<stop  offset="0.4715" style="stop-color:#09A069;stop-opacity:0.4706"/>
					<stop  offset="0.6344" style="stop-color:#05C979;stop-opacity:0.6337"/>
					<stop  offset="0.7817" style="stop-color:#02E785;stop-opacity:0.7813"/>
					<stop  offset="0.9084" style="stop-color:#01F98C;stop-opacity:0.9083"/>
					<stop  offset="1" style="stop-color:#00FF8F"/>
				</linearGradient>
				<path class="st42" d="M576.3,103.9c-1,0-1.9-0.1-2.9-0.2l-72.4-12c-6.2-1-11.5-5.3-13.7-11.2l-25.8-68.7
					c-2.2-5.9-1.1-12.6,2.9-17.5l46.6-56.7c4-4.9,10.4-7.3,16.6-6.2l72.4,12c6.2,1,11.5,5.3,13.7,11.2l25.8,68.7
					c2.2,5.9,1.1,12.6-2.9,17.5L590,97.4C586.6,101.5,581.6,103.9,576.3,103.9z M524.7-67.6c-4.8,0-9.5,2.2-12.6,5.9L465.5-4.9
					c-3.7,4.5-4.7,10.6-2.6,16l25.8,68.7c2,5.4,6.8,9.4,12.6,10.3l72.4,12c5.7,0.9,11.5-1.2,15.2-5.7l46.6-56.7
					c3.7-4.5,4.7-10.6,2.7-16l-25.8-68.7c-2-5.4-6.8-9.4-12.6-10.3l-72.4-12C526.4-67.5,525.5-67.6,524.7-67.6z"/>
			</g>
			
				<linearGradient id="SVGID_28_" gradientUnits="userSpaceOnUse" x1="1099.1831" y1="-1922.191" x2="650.1301" y2="-1473.1379" gradientTransform="matrix(0.9557 -0.2944 0.2944 0.9557 320.1167 1546.3196)">
				<stop  offset="1.800060e-03" style="stop-color:#190329;stop-opacity:0"/>
				<stop  offset="8.846048e-02" style="stop-color:#180B2C;stop-opacity:8.681670e-02"/>
				<stop  offset="0.2211" style="stop-color:#162035;stop-opacity:0.2197"/>
				<stop  offset="0.3832" style="stop-color:#134343;stop-opacity:0.3821"/>
				<stop  offset="0.5686" style="stop-color:#0E7457;stop-opacity:0.5678"/>
				<stop  offset="0.7737" style="stop-color:#08B270;stop-opacity:0.7733"/>
				<stop  offset="0.9923" style="stop-color:#00FC8E;stop-opacity:0.9923"/>
				<stop  offset="1" style="stop-color:#00FF8F"/>
			</linearGradient>
			<path class="st43" d="M730.8-726l-266,82c-22,6.8-38.7,24.8-43.8,47.2l-62,271.4c-5.1,22.4,2.1,45.9,19,61.5l204,189.4
				c16.9,15.6,40.8,21.1,62.8,14.3l266-82c22-6.8,38.7-24.8,43.8-47.2l62-271.4c5.1-22.4-2.1-45.9-19-61.5l-204-189.4
				C776.7-727.3,752.8-732.8,730.8-726z"/>
			<g class="st44">
				<linearGradient id="SVGID_29_" gradientUnits="userSpaceOnUse" x1="655.8801" y1="-578.5693" x2="725.8801" y2="-303.5692">
					<stop  offset="1.800060e-03" style="stop-color:#190329;stop-opacity:0"/>
					<stop  offset="0.1124" style="stop-color:#152D3A;stop-opacity:0.1108"/>
					<stop  offset="0.2959" style="stop-color:#0F6C53;stop-opacity:0.2946"/>
					<stop  offset="0.4715" style="stop-color:#09A069;stop-opacity:0.4706"/>
					<stop  offset="0.6344" style="stop-color:#05C979;stop-opacity:0.6337"/>
					<stop  offset="0.7817" style="stop-color:#02E785;stop-opacity:0.7813"/>
					<stop  offset="0.9084" style="stop-color:#01F98C;stop-opacity:0.9083"/>
					<stop  offset="1" style="stop-color:#00FF8F"/>
				</linearGradient>
				<path class="st45" d="M658.2-53.4c-15.1,0-30.1-4.9-42.3-14.4L383.1-247.9c-19.5-15.1-29.5-39.5-26.2-63.9l39.6-291.7
					c3.3-24.4,19.5-45.3,42.3-54.6l272.4-111.6c22.8-9.3,49-5.8,68.4,9.3l232.8,180.1c19.5,15.1,29.5,39.5,26.2,63.9L999-224.7
					c-3.3,24.4-19.5,45.3-42.3,54.6L684.3-58.5C675.9-55,667.1-53.4,658.2-53.4z M711.5-768.8l0.4,0.9L439.5-656.3
					c-22.1,9.1-37.8,29.4-41,53l-39.6,291.7c-3.2,23.7,6.5,47.4,25.4,62.1L617.1-69.4c18.9,14.6,44.4,18.1,66.5,9L956-171.9
					c22.1-9.1,37.8-29.4,41-53l39.6-291.7c3.2-23.7-6.5-47.4-25.4-62.1L778.4-758.8c-18.9-14.6-44.4-18.1-66.5-9L711.5-768.8z"/>
			</g>
			<path class="st46" d="M102.4-646.9l-145.2,59.5c-12,4.9-20.5,15.9-22.2,28.7l-21.1,155.5c-1.7,12.8,3.5,25.6,13.8,33.6l124.1,96
				c10.3,7.9,24,9.8,36,4.9L233-328.2c12-4.9,20.5-15.9,22.2-28.7l21.1-155.5c1.7-12.8-3.5-25.6-13.8-33.6l-124.1-96
				C128.1-649.9,114.4-651.8,102.4-646.9z"/>
			<path class="st46" d="M183.1-197.2L37.9-137.8c-12,4.9-20.5,15.9-22.2,28.7L-5.4,46.5C-7.2,59.3-1.9,72.1,8.3,80l124.1,96
				c10.3,7.9,24,9.8,36,4.9l145.2-59.5c12-4.9,20.5-15.9,22.2-28.7L357-62.7c1.7-12.8-3.5-25.6-13.8-33.6l-124.1-96
				C208.8-200.3,195.1-202.2,183.1-197.2z"/>
			
				<linearGradient id="SVGID_30_" gradientUnits="userSpaceOnUse" x1="1256.4634" y1="1491.1675" x2="942.5981" y2="1805.0326" gradientTransform="matrix(0.884 0.4676 -0.4676 0.884 487.1187 -2358.7844)">
				<stop  offset="1.800060e-03" style="stop-color:#190329;stop-opacity:0"/>
				<stop  offset="8.761597e-02" style="stop-color:#180B2C;stop-opacity:7.714389e-02"/>
				<stop  offset="0.219" style="stop-color:#152035;stop-opacity:0.1952"/>
				<stop  offset="0.3795" style="stop-color:#104343;stop-opacity:0.3395"/>
				<stop  offset="0.5629" style="stop-color:#097357;stop-opacity:0.5044"/>
				<stop  offset="0.7634" style="stop-color:#00B171;stop-opacity:0.6846"/>
				<stop  offset="0.7739" style="stop-color:#00B472;stop-opacity:0.6941"/>
				<stop  offset="0.9825" style="stop-color:#00F98D;stop-opacity:0.9763"/>
				<stop  offset="1" style="stop-color:#00FF8F"/>
			</linearGradient>
			<path class="st47" d="M875.5-531.3l-172-91c-14.2-7.5-31.3-6.9-45,1.7L493.8-517.2c-13.6,8.5-21.6,23.7-21,39.8l7.2,194.4
				c0.6,16.1,9.7,30.6,23.9,38.1l172,91c14.2,7.5,31.3,6.9,45-1.7L885.6-259c13.6-8.5,21.6-23.7,21-39.8l-7.2-194.4
				C898.8-509.3,889.7-523.8,875.5-531.3z"/>
			<g class="st44">
				<linearGradient id="SVGID_31_" gradientUnits="userSpaceOnUse" x1="587.1434" y1="-562.5817" x2="799.1436" y2="-315.5817">
					<stop  offset="1.800060e-03" style="stop-color:#190329;stop-opacity:0"/>
					<stop  offset="0.1124" style="stop-color:#152D3A;stop-opacity:0.1108"/>
					<stop  offset="0.2959" style="stop-color:#0F6C53;stop-opacity:0.2946"/>
					<stop  offset="0.4715" style="stop-color:#09A069;stop-opacity:0.4706"/>
					<stop  offset="0.6344" style="stop-color:#05C979;stop-opacity:0.6337"/>
					<stop  offset="0.7817" style="stop-color:#02E785;stop-opacity:0.7813"/>
					<stop  offset="0.9084" style="stop-color:#01F98C;stop-opacity:0.9083"/>
					<stop  offset="1" style="stop-color:#00FF8F"/>
				</linearGradient>
				<path class="st48" d="M675.3-159.5c-11.1,0-22.2-3.6-31.3-10.6l-171.9-133c-14.4-11.1-21.8-29.2-19.3-47.2L482-565.7
					c2.4-18,14.4-33.5,31.2-40.3l201.1-82.4c16.8-6.9,36.2-4.3,50.5,6.9l171.9,133c14.4,11.1,21.8,29.2,19.3,47.2L926.9-286
					c-2.4,18-14.4,33.5-31.2,40.3l-201.1,82.4C688.4-160.8,681.8-159.5,675.3-159.5z M714.9-687.1l-201.1,82.4
					c-16.3,6.7-27.9,21.7-30.3,39.2l-29.2,215.4c-2.4,17.5,4.8,35,18.8,45.8l171.9,133c13.9,10.8,32.8,13.3,49.1,6.7l201.1-82.4
					c16.3-6.7,27.9-21.7,30.3-39.2l29.2-215.4c2.4-17.5-4.8-35-18.8-45.8L764-680.4C750.1-691.2,731.2-693.8,714.9-687.1
					L714.9-687.1z"/>
			</g>
			
				<linearGradient id="SVGID_32_" gradientUnits="userSpaceOnUse" x1="2865.2566" y1="3438.074" x2="2658.8296" y2="3644.5007" gradientTransform="matrix(0.4862 0.8738 -0.8738 0.4862 2409.4233 -4535.8286)">
				<stop  offset="1.800060e-03" style="stop-color:#190329;stop-opacity:0"/>
				<stop  offset="8.846048e-02" style="stop-color:#180B2C;stop-opacity:8.681670e-02"/>
				<stop  offset="0.2211" style="stop-color:#162035;stop-opacity:0.2197"/>
				<stop  offset="0.3832" style="stop-color:#134343;stop-opacity:0.3821"/>
				<stop  offset="0.5686" style="stop-color:#0E7457;stop-opacity:0.5678"/>
				<stop  offset="0.7737" style="stop-color:#08B270;stop-opacity:0.7733"/>
				<stop  offset="0.9923" style="stop-color:#00FC8E;stop-opacity:0.9923"/>
				<stop  offset="1" style="stop-color:#00FF8F"/>
			</linearGradient>
			<path class="st49" d="M841.5-404.5l-62.2-111.8c-5.1-9.2-14.8-15-25.4-15.2l-127.9-2c-10.6-0.2-20.4,5.3-25.9,14.4l-65.7,109.8
				c-5.4,9.1-5.6,20.3-0.5,29.6l62.2,111.8c5.1,9.2,14.8,15,25.4,15.2l127.9,2c10.6,0.2,20.4-5.3,25.9-14.4L841-374.9
				C846.5-384,846.6-395.2,841.5-404.5z"/>
			
				<linearGradient id="SVGID_33_" gradientUnits="userSpaceOnUse" x1="6478.6768" y1="3924.2053" x2="6368.1079" y2="4034.7742" gradientTransform="matrix(-0.3408 0.9401 -0.9401 -0.3408 6610.8828 -5089.5298)">
				<stop  offset="1.800060e-03" style="stop-color:#190329;stop-opacity:0"/>
				<stop  offset="8.846048e-02" style="stop-color:#180B2C;stop-opacity:8.681670e-02"/>
				<stop  offset="0.2211" style="stop-color:#162035;stop-opacity:0.2197"/>
				<stop  offset="0.3832" style="stop-color:#134343;stop-opacity:0.3821"/>
				<stop  offset="0.5686" style="stop-color:#0E7457;stop-opacity:0.5678"/>
				<stop  offset="0.7737" style="stop-color:#08B270;stop-opacity:0.7733"/>
				<stop  offset="0.9923" style="stop-color:#00FC8E;stop-opacity:0.9923"/>
				<stop  offset="1" style="stop-color:#00FF8F"/>
			</linearGradient>
			<path class="st50" d="M746.7-334.3l23.4-64.4c1.9-5.3,0.9-11.3-2.8-15.6l-44.1-52.4c-3.6-4.3-9.3-6.4-14.9-5.4l-67.5,12
				c-5.6,1-10.2,4.9-12.1,10.2l-23.4,64.4c-1.9,5.3-0.9,11.3,2.8,15.6l44.1,52.4c3.6,4.3,9.3,6.4,14.9,5.4l67.5-12
				C740.2-325,744.8-328.9,746.7-334.3z"/>
			<g class="st44">
				<linearGradient id="SVGID_34_" gradientUnits="userSpaceOnUse" x1="769.8535" y1="-479.8403" x2="525.854" y2="-236.8412">
					<stop  offset="1.800060e-03" style="stop-color:#190329;stop-opacity:0"/>
					<stop  offset="0.1124" style="stop-color:#152D3A;stop-opacity:0.1108"/>
					<stop  offset="0.2959" style="stop-color:#0F6C53;stop-opacity:0.2946"/>
					<stop  offset="0.4715" style="stop-color:#09A069;stop-opacity:0.4706"/>
					<stop  offset="0.6344" style="stop-color:#05C979;stop-opacity:0.6337"/>
					<stop  offset="0.7817" style="stop-color:#02E785;stop-opacity:0.7813"/>
					<stop  offset="0.9084" style="stop-color:#01F98C;stop-opacity:0.9083"/>
					<stop  offset="1" style="stop-color:#00FF8F"/>
				</linearGradient>
				<path class="st51" d="M681.9-239.7c-5.6,0-11.1-1.5-16-4.6l-107.7-67.3c-9.1-5.7-14.5-15.9-14.1-26.6l4.4-126.9
					c0.4-10.7,6.5-20.5,15.9-25.5l112.1-59.6c9.5-5,21-4.6,30.1,1.1l107.7,67.3c9.1,5.7,14.5,15.9,14.1,26.6l-4.4,126.9
					c-0.4,10.7-6.5,20.5-15.9,25.5L696-243.2C691.6-240.9,686.8-239.7,681.9-239.7z M677.3-548.8l-112.1,59.6
					c-9,4.8-14.8,14.1-15.2,24.3l-4.4,126.9c-0.4,10.2,4.8,19.9,13.4,25.3l107.7,67.3c8.6,5.4,19.6,5.8,28.6,1l112.1-59.6
					c9-4.8,14.8-14.1,15.2-24.3l4.4-126.9c0.4-10.2-4.8-19.9-13.4-25.3l-107.7-67.3C697.3-553.2,686.3-553.6,677.3-548.8
					L677.3-548.8z"/>
			</g>
			
				<linearGradient id="SVGID_35_" gradientUnits="userSpaceOnUse" x1="8527.9131" y1="2626.3262" x2="8270.2373" y2="2884.0022" gradientTransform="matrix(-0.813 0.5822 -0.5822 -0.813 8613.6875 -2691.7151)">
				<stop  offset="1.800060e-03" style="stop-color:#190329;stop-opacity:0"/>
				<stop  offset="8.846048e-02" style="stop-color:#180B2C;stop-opacity:8.681670e-02"/>
				<stop  offset="0.2211" style="stop-color:#162035;stop-opacity:0.2197"/>
				<stop  offset="0.3832" style="stop-color:#134343;stop-opacity:0.3821"/>
				<stop  offset="0.5686" style="stop-color:#0E7457;stop-opacity:0.5678"/>
				<stop  offset="0.7737" style="stop-color:#08B270;stop-opacity:0.7733"/>
				<stop  offset="0.9923" style="stop-color:#00FC8E;stop-opacity:0.9923"/>
				<stop  offset="1" style="stop-color:#00FF8F"/>
			</linearGradient>
			<path class="st52" d="M212,185.4l129.9-93c10.7-7.7,16.5-20.5,15.3-33.6l-15.6-159c-1.3-13.1-9.5-24.6-21.5-30l-145.5-66
				c-12-5.4-26-4.1-36.8,3.6L7.9-99.6C-2.8-91.9-8.6-79.1-7.3-66L8.3,93c1.3,13.1,9.5,24.6,21.5,30l145.5,66
				C187.3,194.4,201.3,193,212,185.4z"/>
			
				<linearGradient id="SVGID_36_" gradientUnits="userSpaceOnUse" x1="9682.5098" y1="-623.048" x2="9502.4102" y2="-442.9479" gradientTransform="matrix(-0.9866 -0.1632 0.1632 -0.9866 9692.9775 1064.8799)">
				<stop  offset="1.800060e-03" style="stop-color:#190329;stop-opacity:0"/>
				<stop  offset="8.846048e-02" style="stop-color:#180B2C;stop-opacity:8.681670e-02"/>
				<stop  offset="0.2211" style="stop-color:#162035;stop-opacity:0.2197"/>
				<stop  offset="0.3832" style="stop-color:#134343;stop-opacity:0.3821"/>
				<stop  offset="0.5686" style="stop-color:#0E7457;stop-opacity:0.5678"/>
				<stop  offset="0.7737" style="stop-color:#08B270;stop-opacity:0.7733"/>
				<stop  offset="0.9923" style="stop-color:#00FC8E;stop-opacity:0.9923"/>
				<stop  offset="1" style="stop-color:#00FF8F"/>
			</linearGradient>
			<path class="st53" d="M89.2,121.1l110.1,18.2c9.1,1.5,18.3-2,24.2-9.1L294.3,44c5.9-7.1,7.5-16.8,4.2-25.5L259.3-86
				c-3.2-8.6-10.9-14.9-20-16.4l-110.1-18.2c-9.1-1.5-18.3,2-24.2,9.1L34.2-25.2c-5.9,7.1-7.5,16.8-4.2,25.5l39.3,104.5
				C72.5,113.4,80.1,119.6,89.2,121.1z"/>
			
				<linearGradient id="SVGID_37_" gradientUnits="userSpaceOnUse" x1="9516.4756" y1="-1071.6302" x2="9314.4775" y2="-869.633" gradientTransform="matrix(-0.9336 -0.3582 0.3582 -0.9336 9287.5352 2025.3314)">
				<stop  offset="1.800060e-03" style="stop-color:#190329;stop-opacity:0"/>
				<stop  offset="8.846048e-02" style="stop-color:#180B2C;stop-opacity:8.681670e-02"/>
				<stop  offset="0.2211" style="stop-color:#162035;stop-opacity:0.2197"/>
				<stop  offset="0.3832" style="stop-color:#134343;stop-opacity:0.3821"/>
				<stop  offset="0.5686" style="stop-color:#0E7457;stop-opacity:0.5678"/>
				<stop  offset="0.7737" style="stop-color:#08B270;stop-opacity:0.7733"/>
				<stop  offset="0.9923" style="stop-color:#00FC8E;stop-opacity:0.9923"/>
				<stop  offset="1" style="stop-color:#00FF8F"/>
			</linearGradient>
			<path class="st54" d="M14.3-323l116.9,44.9c9.7,3.7,20.6,2,28.6-4.5l97.3-78.8c8-6.5,12-16.8,10.4-27l-19.6-123.7
				c-1.6-10.2-8.6-18.8-18.2-22.5l-116.9-44.9c-9.7-3.7-20.6-2-28.6,4.5l-97.3,78.8c-8,6.5-12,16.8-10.4,27L-4-345.5
				C-2.4-335.2,4.6-326.7,14.3-323z"/>
			
				<linearGradient id="SVGID_38_" gradientUnits="userSpaceOnUse" x1="8389.0684" y1="-3289.5364" x2="8256.2314" y2="-3156.699" gradientTransform="matrix(-0.5875 -0.8092 0.8092 -0.5875 7639.2808 4415.4287)">
				<stop  offset="1.800060e-03" style="stop-color:#190329;stop-opacity:0"/>
				<stop  offset="8.846048e-02" style="stop-color:#180B2C;stop-opacity:8.681670e-02"/>
				<stop  offset="0.2211" style="stop-color:#162035;stop-opacity:0.2197"/>
				<stop  offset="0.3832" style="stop-color:#134343;stop-opacity:0.3821"/>
				<stop  offset="0.5686" style="stop-color:#0E7457;stop-opacity:0.5678"/>
				<stop  offset="0.7737" style="stop-color:#08B270;stop-opacity:0.7733"/>
				<stop  offset="0.9923" style="stop-color:#00FC8E;stop-opacity:0.9923"/>
				<stop  offset="1" style="stop-color:#00FF8F"/>
			</linearGradient>
			<path class="st55" d="M24.6-409L73-342.4c4,5.5,10.6,8.5,17.4,7.8l81.9-8.6c6.8-0.7,12.6-5,15.4-11.2l33.5-75.2
				c2.8-6.2,2-13.4-2-18.9l-48.4-66.6c-4-5.5-10.6-8.5-17.4-7.8l-81.9,8.6c-6.8,0.7-12.6,5-15.4,11.2L22.6-428
				C19.9-421.8,20.6-414.5,24.6-409z"/>
		</g>
		
			<radialGradient id="SVGID_39_" cx="347.4488" cy="-265.9739" r="492.5737" gradientTransform="matrix(0.6667 5.845108e-05 -1.692980e-05 0.4344 143.3517 -150.4448)" gradientUnits="userSpaceOnUse">
			<stop  offset="0" style="stop-color:#190329;stop-opacity:0"/>
			<stop  offset="1" style="stop-color:#190329"/>
		</radialGradient>
		<rect x="125" y="-516" class="st56" width="500" height="500"/>
		<g>
			<g class="st57">
				<g>
					<path class="st24" d="M288-148.2h-90.2c-2.4,0-4.4-2-4.4-4.4v-17.2c0-2.4,2-4.4,4.4-4.4H288c2.4,0,4.4,2,4.4,4.4v17.2
						C292.4-150.2,290.5-148.2,288-148.2z"/>
				</g>
			</g>
			<g>
				<text transform="matrix(1 0 0 1 209.6789 -157.0156)" class="st26 st27 st28 st29">START</text>
			</g>
			<rect x="191.4" y="-234.1" style="fill:none;" width="266.1" height="54"/>
			<text transform="matrix(1 0 0 1 191.4191 -226.6989)"><tspan x="0" y="0" class="st26 st27 st28 st31">Lorem ipsum dolor sit amet, consectetuer </tspan><tspan x="0" y="16" class="st26 st27 st28 st31">adipiscing elit, sed diam nonummy nibh.</tspan></text>
			<radialGradient id="SVGID_40_" cx="176.8266" cy="-214.5773" r="116.0382" gradientUnits="userSpaceOnUse">
				<stop  offset="0" style="stop-color:#190329"/>
				<stop  offset="0.9256" style="stop-color:#190329;stop-opacity:0"/>
			</radialGradient>
			<rect x="125.7" y="-289.6" class="st58" width="51.1" height="150.1"/>
			<line class="st59" x1="176.8" y1="-289.6" x2="176.8" y2="-139.5"/>
			<g>
				<text transform="matrix(1 0 0 1 178.9725 -260.4669)" class="st24 st34 st35">Landing</text>
			</g>
		</g>
	</g>
</g>
<g id="DESIGNED_BY_FREEPIK" class="st22">
	<g class="st25">
		<g id="XMLID_29_">
			<g id="XMLID_48_">
				<path id="XMLID_56_" class="st26" d="M385.1,465.5c-0.4,0.4-0.8,0.9-1.1,1.5l-0.5-0.2c-0.1-0.3-0.3-0.5-0.7-0.5
					c-0.3,0-0.6,0.3-0.5,0.7c0,0.3,0.3,0.6,0.7,0.5c0.1,0,0.1,0,0.2-0.1l0.5,0.2c-0.3,0.6-0.4,1.1-0.5,1.7l0.7,0.1
					c0.2-1.3,0.8-2.5,1.8-3.5L385.1,465.5z"/>
				<path id="XMLID_55_" class="st26" d="M390.6,463.2c-0.2,0-0.3,0-0.5,0l-0.1-0.6c0.2-0.1,0.3-0.4,0.3-0.6c0-0.4-0.4-0.7-0.8-0.6
					c-0.4,0-0.7,0.4-0.6,0.8c0,0.3,0.2,0.5,0.4,0.6l0.1,0.6c-0.7,0.1-1.4,0.3-2.1,0.6l0.3,0.7c0.9-0.4,1.9-0.7,3-0.7
					c0.5,0,1,0.1,1.5,0.2l0.2-0.7C391.7,463.2,391.1,463.2,390.6,463.2z"/>
				<path id="XMLID_54_" class="st26" d="M397.2,465.7c0.3,0,0.6-0.3,0.5-0.7c0-0.3-0.3-0.6-0.7-0.5c-0.3,0-0.5,0.3-0.5,0.6
					l-0.4,0.4c-0.4-0.4-0.9-0.8-1.4-1.1l-0.4,0.6c1.1,0.7,2,1.7,2.6,2.9l0.7-0.3c-0.3-0.6-0.6-1.1-0.9-1.5l0.4-0.4
					C397.1,465.7,397.1,465.7,397.2,465.7z"/>
				<path id="XMLID_53_" class="st26" d="M390,473.4c-0.4,0-0.8,0-1.2,0c-0.9,0-1.7-0.1-2.5-0.2c-0.4-0.1-0.8-0.2-1.3-0.3
					c1,1.9,3.1,3.1,5.4,3.1c2.9,0,5.3-1.9,5.9-4.5c-0.7,0.4-1.5,0.8-2.5,1.1C392.8,473,391.5,473.3,390,473.4z"/>
				<path id="XMLID_49_" class="st26" d="M390.6,464.7c-3.4,0-6.1,2.7-6.1,5.9c0,0.4,0,0.8,0.1,1.3c0.7,0.5,2.7,0.9,5.3,0.7
					c2.9-0.2,5.3-1,6.7-2.2c0-0.2,0-0.4,0-0.6C396.2,466.9,393.6,464.7,390.6,464.7z M388.4,471.2c-1,0-1.8-0.8-1.8-1.8
					c0-1,0.8-1.9,1.8-1.9c1,0,1.8,0.8,1.8,1.9C390.3,470.4,389.5,471.2,388.4,471.2z M393.2,470.3c-0.8,0-1.4-0.6-1.4-1.4
					s0.6-1.4,1.4-1.4s1.4,0.6,1.4,1.4S393.9,470.3,393.2,470.3z"/>
			</g>
			<path id="XMLID_46_" class="st26" d="M406.6,466.5c-0.3-0.1-0.8-0.3-1.4-0.2c-0.6,0.1-0.8,0.3-0.8,1v0.9h2.2v1.7h-2.2v5.5h-1.9
				v-5.5h-1.3v-1.7h1.3v-0.9c0-1.7,0.9-2.8,2.6-2.8c0.6,0,1.2,0.1,1.6,0.3V466.5z"/>
			<path id="XMLID_44_" class="st26" d="M411.3,469.9c-0.2,0-0.4,0-0.5,0c-0.9,0-1.5,0.5-1.5,1.6v3.9h-1.9v-7.2h1.9v0.8
				c0.5-0.7,1.1-1,2-1c0.4,0,0.8,0.1,1.1,0.3L411.3,469.9z"/>
			<path id="XMLID_41_" class="st26" d="M419,471.8c0,0.2,0,0.5,0,0.7h-5.1c0.2,1,0.9,1.5,1.8,1.5c0.6,0,1.3-0.3,1.8-0.7l1.1,1.2
				c-0.8,0.7-1.9,1.1-3.1,1.1c-2.2,0-3.7-1.5-3.7-3.8c0-2.3,1.5-3.8,3.6-3.8C417.5,468,419,469.5,419,471.8z M413.9,471.1h3.2
				c-0.2-0.9-0.7-1.4-1.6-1.4C414.6,469.7,414,470.2,413.9,471.1z"/>
			<path id="XMLID_38_" class="st26" d="M426.6,471.8c0,0.2,0,0.5,0,0.7h-5.1c0.2,1,0.9,1.5,1.8,1.5c0.6,0,1.3-0.3,1.8-0.7l1.1,1.2
				c-0.8,0.7-1.9,1.1-3.1,1.1c-2.2,0-3.7-1.5-3.7-3.8c0-2.3,1.5-3.8,3.6-3.8C425.2,468,426.6,469.5,426.6,471.8z M421.5,471.1h3.2
				c-0.2-0.9-0.7-1.4-1.6-1.4C422.2,469.7,421.7,470.2,421.5,471.1z"/>
			<path id="XMLID_35_" class="st26" d="M435,471.8c0,2.2-1.5,3.8-3.5,3.8c-1,0-1.6-0.4-2.1-0.9v3.7h-1.9v-10.1h1.9v0.8
				c0.5-0.6,1.2-1,2.1-1C433.5,468,435,469.6,435,471.8z M429.3,471.8c0,1.1,0.7,2,1.8,2c1.1,0,1.8-0.9,1.8-2c0-1.1-0.7-2-1.8-2
				C430,469.8,429.3,470.6,429.3,471.8z"/>
			<path id="XMLID_32_" class="st26" d="M438.1,465.8c0,0.7-0.5,1.2-1.2,1.2c-0.7,0-1.2-0.5-1.2-1.2c0-0.7,0.5-1.2,1.2-1.2
				C437.5,464.6,438.1,465.1,438.1,465.8z M437.8,475.4h-1.9v-7.2h1.9V475.4z"/>
			<path id="XMLID_30_" class="st26" d="M441,470.7l2.7-2.6h2.4l-3.5,3.4l3.5,3.8h-2.4l-2.7-2.9v2.9h-1.9v-10.7h1.9V470.7z"/>
		</g>
		<g>
			<path class="st26" d="M309.4,475.3v-1.1c-0.5,0.7-1.4,1.2-2.4,1.2c-1.8,0-3.1-1.4-3.1-3.7c0-2.3,1.3-3.7,3.1-3.7
				c1,0,1.8,0.5,2.4,1.2v-3.8h1.1v9.8H309.4z M309.4,473.4v-3.2c-0.4-0.6-1.2-1.1-2.1-1.1c-1.4,0-2.3,1.2-2.3,2.7
				c0,1.6,0.8,2.7,2.3,2.7C308.2,474.5,309,474,309.4,473.4z"/>
			<path class="st26" d="M311.9,471.7c0-2.1,1.5-3.7,3.5-3.7c2.1,0,3.4,1.7,3.4,3.8v0.3h-5.7c0.1,1.3,1,2.4,2.5,2.4
				c0.8,0,1.6-0.3,2.2-0.9l0.5,0.7c-0.7,0.7-1.7,1.1-2.8,1.1C313.4,475.5,311.9,474,311.9,471.7z M315.4,468.9
				c-1.5,0-2.3,1.3-2.3,2.4h4.6C317.7,470.3,317,468.9,315.4,468.9z"/>
			<path class="st26" d="M319.6,474.4l0.6-0.8c0.5,0.5,1.4,1,2.3,1c1.1,0,1.7-0.5,1.7-1.2c0-1.7-4.4-0.7-4.4-3.3c0-1.1,1-2,2.6-2
				c1.2,0,2.1,0.5,2.6,1l-0.5,0.8c-0.4-0.5-1.2-0.9-2.1-0.9c-1,0-1.6,0.5-1.6,1.1c0,1.6,4.4,0.5,4.4,3.3c0,1.2-1,2.1-2.8,2.1
				C321.3,475.5,320.3,475.1,319.6,474.4z"/>
			<path class="st26" d="M326.5,466.5c0-0.4,0.3-0.7,0.7-0.7c0.4,0,0.7,0.3,0.7,0.7c0,0.4-0.3,0.7-0.7,0.7
				C326.8,467.2,326.5,466.9,326.5,466.5z M326.7,475.3v-7.1h1.1v7.1H326.7z"/>
			<path class="st26" d="M329.6,477.1l0.6-0.8c0.6,0.7,1.3,1,2.3,1c1.2,0,2.3-0.6,2.3-2.1v-1c-0.5,0.7-1.4,1.3-2.4,1.3
				c-1.8,0-3.1-1.4-3.1-3.7c0-2.3,1.3-3.7,3.1-3.7c1,0,1.8,0.5,2.4,1.2v-1.1h1.1v6.9c0,2.3-1.6,3.1-3.4,3.1
				C331.2,478.2,330.4,477.9,329.6,477.1z M334.7,473.3v-3.1c-0.4-0.6-1.2-1.1-2.1-1.1c-1.4,0-2.3,1.1-2.3,2.7
				c0,1.6,0.8,2.7,2.3,2.7C333.5,474.4,334.3,473.9,334.7,473.3z"/>
			<path class="st26" d="M342.4,475.3v-4.6c0-1.2-0.6-1.6-1.6-1.6c-0.9,0-1.7,0.5-2.1,1.1v5.2h-1.1v-7.1h1.1v1
				c0.5-0.6,1.5-1.2,2.5-1.2c1.5,0,2.3,0.7,2.3,2.3v5H342.4z"/>
			<path class="st26" d="M344.9,471.7c0-2.1,1.5-3.7,3.5-3.7c2.1,0,3.4,1.7,3.4,3.8v0.3h-5.7c0.1,1.3,1,2.4,2.5,2.4
				c0.8,0,1.6-0.3,2.2-0.9l0.5,0.7c-0.7,0.7-1.7,1.1-2.8,1.1C346.4,475.5,344.9,474,344.9,471.7z M348.4,468.9
				c-1.5,0-2.3,1.3-2.3,2.4h4.6C350.7,470.3,350,468.9,348.4,468.9z"/>
			<path class="st26" d="M358.4,475.3v-1.1c-0.5,0.7-1.4,1.2-2.4,1.2c-1.8,0-3.1-1.4-3.1-3.7c0-2.3,1.3-3.7,3.1-3.7
				c1,0,1.8,0.5,2.4,1.2v-3.8h1.1v9.8H358.4z M358.4,473.4v-3.2c-0.4-0.6-1.2-1.1-2.1-1.1c-1.4,0-2.3,1.2-2.3,2.7
				c0,1.6,0.8,2.7,2.3,2.7C357.1,474.5,358,474,358.4,473.4z"/>
			<path class="st26" d="M364.7,475.3v-9.8h1.1v3.8c0.6-0.8,1.4-1.2,2.4-1.2c1.8,0,3.1,1.5,3.1,3.7c0,2.3-1.3,3.7-3.1,3.7
				c-1,0-1.9-0.5-2.4-1.2v1.1H364.7z M367.9,474.5c1.4,0,2.3-1.2,2.3-2.7c0-1.6-0.8-2.7-2.3-2.7c-0.9,0-1.7,0.5-2.1,1.1v3.2
				C366.2,474,367,474.5,367.9,474.5z"/>
			<path class="st26" d="M372.5,477.1c0.2,0.1,0.4,0.1,0.6,0.1c0.5,0,0.8-0.2,1.1-0.7l0.5-1.1l-3-7.1h1.2l2.4,5.8l2.3-5.8h1.2
				l-3.5,8.5c-0.4,1-1.1,1.4-2.1,1.4c-0.2,0-0.6,0-0.8-0.1L372.5,477.1z"/>
		</g>
	</g>
	<g class="st25">
		<g id="XMLID_1_">
			<g id="XMLID_20_">
				<path id="XMLID_28_" class="st26" d="M385.1-50.5c-0.4,0.4-0.8,0.9-1.1,1.5l-0.5-0.2c-0.1-0.3-0.3-0.5-0.7-0.5
					c-0.3,0-0.6,0.3-0.5,0.7c0,0.3,0.3,0.6,0.7,0.5c0.1,0,0.1,0,0.2-0.1l0.5,0.2c-0.3,0.6-0.4,1.1-0.5,1.7l0.7,0.1
					c0.2-1.3,0.8-2.5,1.8-3.5L385.1-50.5z"/>
				<path id="XMLID_27_" class="st26" d="M390.6-52.8c-0.2,0-0.3,0-0.5,0l-0.1-0.6c0.2-0.1,0.3-0.4,0.3-0.6c0-0.4-0.4-0.7-0.8-0.6
					c-0.4,0-0.7,0.4-0.6,0.8c0,0.3,0.2,0.5,0.4,0.6l0.1,0.6c-0.7,0.1-1.4,0.3-2.1,0.6l0.3,0.7c0.9-0.4,1.9-0.7,3-0.7
					c0.5,0,1,0.1,1.5,0.2l0.2-0.7C391.7-52.8,391.1-52.8,390.6-52.8z"/>
				<path id="XMLID_26_" class="st26" d="M397.2-50.3c0.3,0,0.6-0.3,0.5-0.7c0-0.3-0.3-0.6-0.7-0.5c-0.3,0-0.5,0.3-0.5,0.6l-0.4,0.4
					c-0.4-0.4-0.9-0.8-1.4-1.1l-0.4,0.6c1.1,0.7,2,1.7,2.6,2.9l0.7-0.3c-0.3-0.6-0.6-1.1-0.9-1.5l0.4-0.4
					C397.1-50.3,397.1-50.3,397.2-50.3z"/>
				<path id="XMLID_25_" class="st26" d="M390-42.6c-0.4,0-0.8,0-1.2,0c-0.9,0-1.7-0.1-2.5-0.2c-0.4-0.1-0.8-0.2-1.3-0.3
					c1,1.9,3.1,3.1,5.4,3.1c2.9,0,5.3-1.9,5.9-4.5c-0.7,0.4-1.5,0.8-2.5,1.1C392.8-42.9,391.5-42.7,390-42.6z"/>
				<path id="XMLID_21_" class="st26" d="M390.6-51.3c-3.4,0-6.1,2.7-6.1,5.9c0,0.4,0,0.8,0.1,1.3c0.7,0.5,2.7,0.9,5.3,0.7
					c2.9-0.2,5.3-1,6.7-2.2c0-0.2,0-0.4,0-0.6C396.2-49.1,393.7-51.3,390.6-51.3z M388.4-44.8c-1,0-1.8-0.8-1.8-1.8
					c0-1,0.8-1.9,1.8-1.9c1,0,1.8,0.8,1.8,1.9C390.3-45.6,389.5-44.8,388.4-44.8z M393.2-45.7c-0.8,0-1.4-0.6-1.4-1.4
					s0.6-1.4,1.4-1.4s1.4,0.6,1.4,1.4S393.9-45.7,393.2-45.7z"/>
			</g>
			<path id="XMLID_18_" class="st26" d="M406.6-49.4c-0.3-0.1-0.8-0.3-1.4-0.2c-0.6,0.1-0.8,0.3-0.8,1v0.9h2.2v1.7h-2.2v5.5h-1.9
				v-5.5h-1.3v-1.7h1.3v-0.9c0-1.7,0.9-2.8,2.6-2.8c0.6,0,1.2,0.1,1.6,0.3V-49.4z"/>
			<path id="XMLID_16_" class="st26" d="M411.3-46.1c-0.2,0-0.4,0-0.5,0c-0.9,0-1.5,0.5-1.5,1.6v3.9h-1.9v-7.2h1.9v0.8
				c0.5-0.7,1.1-1,2-1c0.4,0,0.8,0.1,1.1,0.3L411.3-46.1z"/>
			<path id="XMLID_13_" class="st26" d="M419-44.2c0,0.2,0,0.5,0,0.7h-5.1c0.2,1,0.9,1.5,1.8,1.5c0.6,0,1.3-0.3,1.8-0.7l1.1,1.2
				c-0.8,0.7-1.9,1.1-3.1,1.1c-2.2,0-3.7-1.5-3.7-3.8c0-2.3,1.5-3.8,3.6-3.8C417.5-48,419-46.5,419-44.2z M413.9-44.9h3.2
				c-0.2-0.9-0.7-1.4-1.6-1.4C414.6-46.3,414-45.8,413.9-44.9z"/>
			<path id="XMLID_10_" class="st26" d="M426.6-44.2c0,0.2,0,0.5,0,0.7h-5.1c0.2,1,0.9,1.5,1.8,1.5c0.6,0,1.3-0.3,1.8-0.7l1.1,1.2
				c-0.8,0.7-1.9,1.1-3.1,1.1c-2.2,0-3.7-1.5-3.7-3.8c0-2.3,1.5-3.8,3.6-3.8C425.2-48,426.6-46.5,426.6-44.2z M421.5-44.9h3.2
				c-0.2-0.9-0.7-1.4-1.6-1.4C422.2-46.3,421.7-45.8,421.5-44.9z"/>
			<path id="XMLID_7_" class="st26" d="M435-44.2c0,2.2-1.5,3.8-3.5,3.8c-1,0-1.6-0.4-2.1-0.9v3.7h-1.9v-10.1h1.9v0.8
				c0.5-0.6,1.2-1,2.1-1C433.5-48,435-46.4,435-44.2z M429.3-44.2c0,1.1,0.7,2,1.8,2c1.1,0,1.8-0.9,1.8-2c0-1.1-0.7-2-1.8-2
				C430-46.2,429.3-45.3,429.3-44.2z"/>
			<path id="XMLID_4_" class="st26" d="M438.1-50.1c0,0.7-0.5,1.2-1.2,1.2c-0.7,0-1.2-0.5-1.2-1.2c0-0.7,0.5-1.2,1.2-1.2
				C437.5-51.4,438.1-50.8,438.1-50.1z M437.8-40.6h-1.9v-7.2h1.9V-40.6z"/>
			<path id="XMLID_2_" class="st26" d="M441-45.2l2.7-2.6h2.4l-3.5,3.4l3.5,3.8h-2.4l-2.7-2.9v2.9h-1.9v-10.7h1.9V-45.2z"/>
		</g>
		<g>
			<path class="st26" d="M309.4-40.7v-1.1c-0.5,0.7-1.4,1.2-2.4,1.2c-1.8,0-3.1-1.4-3.1-3.7c0-2.3,1.3-3.7,3.1-3.7
				c1,0,1.8,0.5,2.4,1.2v-3.8h1.1v9.8H309.4z M309.4-42.6v-3.2c-0.4-0.6-1.2-1.1-2.1-1.1c-1.4,0-2.3,1.2-2.3,2.7
				c0,1.6,0.8,2.7,2.3,2.7C308.2-41.5,309-42,309.4-42.6z"/>
			<path class="st26" d="M311.9-44.2c0-2.1,1.5-3.7,3.5-3.7c2.1,0,3.4,1.7,3.4,3.8v0.3h-5.7c0.1,1.3,1,2.4,2.5,2.4
				c0.8,0,1.6-0.3,2.2-0.9l0.5,0.7c-0.7,0.7-1.7,1.1-2.8,1.1C313.4-40.5,311.9-42,311.9-44.2z M315.4-47c-1.5,0-2.3,1.3-2.3,2.4h4.6
				C317.7-45.7,317-47,315.4-47z"/>
			<path class="st26" d="M319.6-41.6l0.6-0.8c0.5,0.5,1.4,1,2.3,1c1.1,0,1.7-0.5,1.7-1.2c0-1.7-4.4-0.7-4.4-3.3c0-1.1,1-2,2.6-2
				c1.2,0,2.1,0.5,2.6,1l-0.5,0.8c-0.4-0.5-1.2-0.9-2.1-0.9c-1,0-1.6,0.5-1.6,1.1c0,1.6,4.4,0.5,4.4,3.3c0,1.2-1,2.1-2.8,2.1
				C321.3-40.5,320.3-40.9,319.6-41.6z"/>
			<path class="st26" d="M326.5-49.5c0-0.4,0.3-0.7,0.7-0.7c0.4,0,0.7,0.3,0.7,0.7c0,0.4-0.3,0.7-0.7,0.7
				C326.8-48.8,326.5-49.1,326.5-49.5z M326.7-40.7v-7.1h1.1v7.1H326.7z"/>
			<path class="st26" d="M329.6-38.9l0.6-0.8c0.6,0.7,1.3,1,2.3,1c1.2,0,2.3-0.6,2.3-2.1v-1c-0.5,0.7-1.4,1.3-2.4,1.3
				c-1.8,0-3.1-1.4-3.1-3.7c0-2.3,1.3-3.7,3.1-3.7c1,0,1.8,0.5,2.4,1.2v-1.1h1.1v6.9c0,2.3-1.6,3.1-3.4,3.1
				C331.2-37.8,330.4-38,329.6-38.9z M334.7-42.7v-3.1c-0.4-0.6-1.2-1.1-2.1-1.1c-1.4,0-2.3,1.1-2.3,2.7c0,1.6,0.8,2.7,2.3,2.7
				C333.5-41.6,334.3-42.1,334.7-42.7z"/>
			<path class="st26" d="M342.4-40.7v-4.6c0-1.2-0.6-1.6-1.6-1.6c-0.9,0-1.7,0.5-2.1,1.1v5.2h-1.1v-7.1h1.1v1
				c0.5-0.6,1.5-1.2,2.5-1.2c1.5,0,2.3,0.7,2.3,2.3v5H342.4z"/>
			<path class="st26" d="M344.9-44.2c0-2.1,1.5-3.7,3.5-3.7c2.1,0,3.4,1.7,3.4,3.8v0.3h-5.7c0.1,1.3,1,2.4,2.5,2.4
				c0.8,0,1.6-0.3,2.2-0.9l0.5,0.7c-0.7,0.7-1.7,1.1-2.8,1.1C346.4-40.5,344.9-42,344.9-44.2z M348.4-47c-1.5,0-2.3,1.3-2.3,2.4h4.6
				C350.7-45.7,350-47,348.4-47z"/>
			<path class="st26" d="M358.4-40.7v-1.1c-0.5,0.7-1.4,1.2-2.4,1.2c-1.8,0-3.1-1.4-3.1-3.7c0-2.3,1.3-3.7,3.1-3.7
				c1,0,1.8,0.5,2.4,1.2v-3.8h1.1v9.8H358.4z M358.4-42.6v-3.2c-0.4-0.6-1.2-1.1-2.1-1.1c-1.4,0-2.3,1.2-2.3,2.7
				c0,1.6,0.8,2.7,2.3,2.7C357.1-41.5,358-42,358.4-42.6z"/>
			<path class="st26" d="M364.7-40.7v-9.8h1.1v3.8c0.6-0.8,1.4-1.2,2.4-1.2c1.8,0,3.1,1.5,3.1,3.7c0,2.3-1.3,3.7-3.1,3.7
				c-1,0-1.9-0.5-2.4-1.2v1.1H364.7z M367.9-41.5c1.4,0,2.3-1.2,2.3-2.7c0-1.6-0.8-2.7-2.3-2.7c-0.9,0-1.7,0.5-2.1,1.1v3.2
				C366.2-42,367-41.5,367.9-41.5z"/>
			<path class="st26" d="M372.5-38.9c0.2,0.1,0.4,0.1,0.6,0.1c0.5,0,0.8-0.2,1.1-0.7l0.5-1.1l-3-7.1h1.2l2.4,5.8l2.3-5.8h1.2
				l-3.5,8.5c-0.4,1-1.1,1.4-2.1,1.4c-0.2,0-0.6,0-0.8-0.1L372.5-38.9z"/>
		</g>
	</g>
</g>
</svg>
