<svg xmlns="http://www.w3.org/2000/svg" xmlns:xlink="http://www.w3.org/1999/xlink" viewBox="0 0 1126.66 985.21"><defs><style>.cls-1,.cls-14,.cls-5{fill:none;}.cls-2{isolation:isolate;}.cls-3{clip-path:url(#clip-path);}.cls-4{fill:url(#Degradado_sin_nombre_428);}.cls-14,.cls-5{stroke:#00ff8f;}.cls-14,.cls-24,.cls-5,.cls-6{stroke-miterlimit:10;}.cls-5{stroke-width:1.48px;}.cls-14,.cls-5,.cls-7{opacity:0.2;}.cls-24,.cls-6{stroke:#00ffd4;}.cls-6{fill:url(#Degradado_sin_nombre_437);}.cls-8{fill:url(#Degradado_sin_nombre_438);}.cls-9{fill:url(#Degradado_sin_nombre_438-2);}.cls-10{fill:url(#Degradado_sin_nombre_438-3);}.cls-11,.cls-12,.cls-17,.cls-18,.cls-20,.cls-22{opacity:0.3;}.cls-11{fill:url(#Degradado_sin_nombre_435);}.cls-13{fill:url(#Degradado_sin_nombre_438-4);}.cls-14{stroke-width:2px;}.cls-15,.cls-21{opacity:0.6;}.cls-15{fill:url(#Degradado_sin_nombre_440);}.cls-16{fill:url(#Degradado_sin_nombre_438-5);}.cls-17{fill:url(#Degradado_sin_nombre_435-2);}.cls-18{fill:url(#Degradado_sin_nombre_435-3);}.cls-19{fill:url(#Degradado_sin_nombre_438-6);}.cls-20{fill:url(#Degradado_sin_nombre_435-4);}.cls-21{fill:url(#Degradado_sin_nombre_435-5);}.cls-22{fill:url(#Degradado_sin_nombre_435-6);}.cls-23{opacity:0.5;fill:url(#Degradado_sin_nombre_435-7);}.cls-24{opacity:0.47;mix-blend-mode:darken;fill:url(#Degradado_sin_nombre_452);}</style><clipPath id="clip-path"><rect class="cls-1" x="141.74" y="258.83" width="750" height="500"/></clipPath><linearGradient id="Degradado_sin_nombre_428" x1="516.74" y1="365.83" x2="516.74" y2="1309.74" gradientUnits="userSpaceOnUse"><stop offset="0" stop-color="#190329"/><stop offset="0.09" stop-color="#180d2d"/><stop offset="0.23" stop-color="#152938"/><stop offset="0.43" stop-color="#11554a"/><stop offset="0.65" stop-color="#0b9363"/><stop offset="0.91" stop-color="#03e083"/><stop offset="1" stop-color="#00ff8f"/></linearGradient><linearGradient id="Degradado_sin_nombre_437" x1="516.74" y1="259.83" x2="516.74" y2="1203.74" gradientUnits="userSpaceOnUse"><stop offset="0" stop-color="#190329"/><stop offset="0.34" stop-color="#134142" stop-opacity="0.75"/><stop offset="0.93" stop-color="#02e886" stop-opacity="0.09"/><stop offset="1" stop-color="#00ff8f" stop-opacity="0"/></linearGradient><linearGradient id="Degradado_sin_nombre_438" x1="711.41" y1="673.43" x2="651.41" y2="770.43" gradientUnits="userSpaceOnUse"><stop offset="0" stop-color="#190329" stop-opacity="0"/><stop offset="0.12" stop-color="#152f3b" stop-opacity="0.18"/><stop offset="0.3" stop-color="#0e6d54" stop-opacity="0.42"/><stop offset="0.48" stop-color="#09a169" stop-opacity="0.63"/><stop offset="0.64" stop-color="#05ca7a" stop-opacity="0.79"/><stop offset="0.78" stop-color="#02e785" stop-opacity="0.9"/><stop offset="0.91" stop-color="#01f98c" stop-opacity="0.98"/><stop offset="1" stop-color="#00ff8f"/></linearGradient><linearGradient id="Degradado_sin_nombre_438-2" x1="711.41" y1="673.43" x2="651.41" y2="770.43" xlink:href="#Degradado_sin_nombre_438"/><linearGradient id="Degradado_sin_nombre_438-3" x1="711.41" y1="673.43" x2="651.41" y2="770.43" xlink:href="#Degradado_sin_nombre_438"/><linearGradient id="Degradado_sin_nombre_435" x1="1037.14" y1="-1186.24" x2="588.09" y2="-737.19" gradientTransform="translate(250.2 1599.51) rotate(-17.12)" gradientUnits="userSpaceOnUse"><stop offset="0" stop-color="#190329" stop-opacity="0"/><stop offset="0.09" stop-color="#180b2c" stop-opacity="0.03"/><stop offset="0.22" stop-color="#162035" stop-opacity="0.11"/><stop offset="0.38" stop-color="#134243" stop-opacity="0.25"/><stop offset="0.56" stop-color="#0e7256" stop-opacity="0.44"/><stop offset="0.77" stop-color="#08b06f" stop-opacity="0.69"/><stop offset="0.98" stop-color="#01f98d" stop-opacity="0.98"/><stop offset="1" stop-color="#00ff8f"/></linearGradient><linearGradient id="Degradado_sin_nombre_438-4" x1="743.33" y1="196.24" x2="813.33" y2="471.24" xlink:href="#Degradado_sin_nombre_438"/><linearGradient id="Degradado_sin_nombre_440" x1="1591.46" y1="2231.45" x2="1277.6" y2="2545.32" gradientTransform="translate(624.59 -2395.04) rotate(27.88)" gradientUnits="userSpaceOnUse"><stop offset="0" stop-color="#190329" stop-opacity="0"/><stop offset="0.11" stop-color="#170e2e" stop-opacity="0.04"/><stop offset="0.28" stop-color="#132c3a" stop-opacity="0.16"/><stop offset="0.48" stop-color="#0c5d4e" stop-opacity="0.35"/><stop offset="0.72" stop-color="#03a16a" stop-opacity="0.62"/><stop offset="0.77" stop-color="#00b472" stop-opacity="0.69"/><stop offset="0.9" stop-color="#00dc81" stop-opacity="0.86"/><stop offset="1" stop-color="#00ff8f"/></linearGradient><linearGradient id="Degradado_sin_nombre_438-5" x1="674.59" y1="212.22" x2="886.59" y2="459.22" xlink:href="#Degradado_sin_nombre_438"/><linearGradient id="Degradado_sin_nombre_435-2" x1="3431.49" y1="3995.23" x2="3225.07" y2="4201.66" gradientTransform="translate(2708.41 -4526.69) rotate(60.91)" xlink:href="#Degradado_sin_nombre_435"/><linearGradient id="Degradado_sin_nombre_435-3" x1="7124.02" y1="4058.22" x2="7013.45" y2="4168.79" gradientTransform="translate(7044.25 -4875.74) rotate(109.93)" xlink:href="#Degradado_sin_nombre_435"/><linearGradient id="Degradado_sin_nombre_438-6" x1="857.3" y1="294.97" x2="613.3" y2="537.96" xlink:href="#Degradado_sin_nombre_438"/><linearGradient id="Degradado_sin_nombre_435-4" x1="9014.21" y1="2497.25" x2="8756.54" y2="2754.92" gradientTransform="matrix(-0.81, 0.58, -0.58, -0.81, 9021.35, -2304.97)" xlink:href="#Degradado_sin_nombre_435"/><linearGradient id="Degradado_sin_nombre_435-5" x1="9793.6" y1="-882.13" x2="9613.5" y2="-702.03" gradientTransform="matrix(-0.99, -0.16, 0.16, -0.99, 9932.31, 1602.21)" xlink:href="#Degradado_sin_nombre_435"/><linearGradient id="Degradado_sin_nombre_435-6" x1="9524.06" y1="-1314" x2="9322.06" y2="-1112" gradientTransform="translate(9468.89 2576.58) rotate(-159.01)" xlink:href="#Degradado_sin_nombre_435"/><linearGradient id="Degradado_sin_nombre_435-7" x1="8145.16" y1="-3377.78" x2="8012.32" y2="-3244.94" gradientTransform="translate(7654.84 4941.02) rotate(-125.98)" xlink:href="#Degradado_sin_nombre_435"/><radialGradient id="Degradado_sin_nombre_452" cx="516.74" cy="508.83" r="492.59" gradientTransform="matrix(1, 0, 0, 0.43, 0.01, 287.75)" gradientUnits="userSpaceOnUse"><stop offset="0" stop-color="#190329" stop-opacity="0"/><stop offset="0.4" stop-color="#190329" stop-opacity="0.33"/><stop offset="1" stop-color="#190329"/></radialGradient></defs><title>Zasób 2</title><g class="cls-2"><g id="Warstwa_2" data-name="Warstwa 2"><g id="BACKGROUND_2" data-name="BACKGROUND 2"><g class="cls-3"><rect class="cls-4" x="141.74" y="258.83" width="750" height="500"/><path class="cls-5" d="M313.37,315.44l-91.21,37.35a22.81,22.81,0,0,0-13.95,18L195,468.49a22.8,22.8,0,0,0,8.64,21.1l78,60.31A22.83,22.83,0,0,0,304.14,553l91.21-37.36a22.79,22.79,0,0,0,13.95-18l13.26-97.67a22.8,22.8,0,0,0-8.64-21.09L336,318.5A22.8,22.8,0,0,0,313.37,315.44Z"/><path class="cls-5" d="M336.27,352.05l-71.45,7.49a16.6,16.6,0,0,0-13.45,9.76l-29.24,65.62a16.59,16.59,0,0,0,1.73,16.52l42.2,58.15a16.63,16.63,0,0,0,15.18,6.76l71.45-7.48a16.62,16.62,0,0,0,13.45-9.76l29.25-65.63A16.64,16.64,0,0,0,393.66,417l-42.21-58.14A16.63,16.63,0,0,0,336.27,352.05Z"/><path class="cls-5" d="M339.69,388.15l-45.39-7.51a10.64,10.64,0,0,0-10,3.75l-29.19,35.55a10.62,10.62,0,0,0-1.74,10.5L269.6,473.5a10.63,10.63,0,0,0,8.22,6.75l45.39,7.51a10.65,10.65,0,0,0,10-3.74l29.2-35.56A10.63,10.63,0,0,0,364.1,438L347.91,394.9A10.65,10.65,0,0,0,339.69,388.15Z"/><rect class="cls-6" x="141.74" y="258.83" width="750" height="500"/><g class="cls-7"><path class="cls-8" d="M616.82,985.21a37.21,37.21,0,0,1-22.75-7.74L469.64,881.2a37.21,37.21,0,0,1-14.07-34.35L476.73,691a37.21,37.21,0,0,1,22.71-29.35L645,602a37.22,37.22,0,0,1,36.78,5l124.43,96.27a37.22,37.22,0,0,1,14.06,34.35l-21.15,155.9a37.23,37.23,0,0,1-22.71,29.35L630.85,982.46A37,37,0,0,1,616.82,985.21Zm28.49-382.56.28.69L500,663a35.75,35.75,0,0,0-21.81,28.19L457,847.05a35.76,35.76,0,0,0,13.51,33L595,976.3a35.76,35.76,0,0,0,35.32,4.79l145.59-59.62a35.78,35.78,0,0,0,21.81-28.19l21.15-155.9a35.73,35.73,0,0,0-13.51-33L680.9,608.13a35.72,35.72,0,0,0-35.31-4.79Z"/></g><g class="cls-7"><path class="cls-9" d="M591.28,924.21A27.34,27.34,0,0,1,569.2,913l-67.37-92.8A27.35,27.35,0,0,1,499,793.06l46.68-104.74a27.34,27.34,0,0,1,22.06-16l114-11.95a27.33,27.33,0,0,1,24.9,11.1l67.37,92.8a27.32,27.32,0,0,1,2.83,27.11L730.2,896.11a27.31,27.31,0,0,1-22.06,16l-114,12C593.15,924.16,592.21,924.21,591.28,924.21Zm90.66-262.38L567.88,673.78A25.83,25.83,0,0,0,547,688.92L500.34,793.66A25.85,25.85,0,0,0,503,819.3l67.37,92.8a25.88,25.88,0,0,0,23.55,10.5l114-12a25.81,25.81,0,0,0,20.86-15.14l46.69-104.74a25.88,25.88,0,0,0-2.69-25.64l-67.37-92.8a25.84,25.84,0,0,0-23.54-10.5Z"/></g><g class="cls-7"><path class="cls-10" d="M663.76,878.66a17.44,17.44,0,0,1-2.87-.23l-72.44-12a17.78,17.78,0,0,1-13.7-11.24l-25.84-68.73A17.75,17.75,0,0,1,551.8,769l46.6-56.75A17.75,17.75,0,0,1,615,706l72.45,12a17.74,17.74,0,0,1,13.69,11.24L727,798a17.77,17.77,0,0,1-2.89,17.48l-46.6,56.75A17.78,17.78,0,0,1,663.76,878.66ZM612.11,707.24a16.29,16.29,0,0,0-12.57,5.94l-46.6,56.74a16.29,16.29,0,0,0-2.65,16l25.84,68.73A16.32,16.32,0,0,0,588.69,865l72.44,12a16.29,16.29,0,0,0,15.21-5.72l46.6-56.74a16.31,16.31,0,0,0,2.65-16l-25.85-68.73a16.29,16.29,0,0,0-12.55-10.31l-72.45-12A15.47,15.47,0,0,0,612.11,707.24Z"/></g><path class="cls-11" d="M818.22,48.81l-266,82A64.38,64.38,0,0,0,508.39,178l-62,271.37a64.37,64.37,0,0,0,18.95,61.52l204,189.41a64.38,64.38,0,0,0,62.75,14.34l266-82a64.37,64.37,0,0,0,43.8-47.18l62-271.37a64.38,64.38,0,0,0-19-61.52L881,63.15A64.41,64.41,0,0,0,818.22,48.81Z"/><g class="cls-12"><path class="cls-13" d="M745.68,721.44A69.25,69.25,0,0,1,703.35,707L470.54,526.91A69.25,69.25,0,0,1,444.37,463L484,171.32a69.25,69.25,0,0,1,42.26-54.63L798.61,5.13a69.25,69.25,0,0,1,68.44,9.29l232.81,180.12A69.25,69.25,0,0,1,1126,258.45l-39.58,291.68a69.28,69.28,0,0,1-42.26,54.63L771.79,716.32A68.88,68.88,0,0,1,745.68,721.44ZM799,6.05l.38.93L527,118.54a67.26,67.26,0,0,0-41,53L446.35,463.27a67.26,67.26,0,0,0,25.42,62.06L704.58,705.45a67.28,67.28,0,0,0,66.46,9l272.39-111.56a67.27,67.27,0,0,0,41-53l39.58-291.68a67.25,67.25,0,0,0-25.42-62.06L865.82,16a67.25,67.25,0,0,0-66.46-9Z"/></g><path class="cls-14" d="M189.87,127.93,44.64,187.41a36.29,36.29,0,0,0-22.21,28.7L1.33,371.63a36.3,36.3,0,0,0,13.75,33.58l124.13,96a36.26,36.26,0,0,0,36,4.88l145.24-59.48a36.28,36.28,0,0,0,22.2-28.7l21.11-155.51A36.31,36.31,0,0,0,350,228.84l-124.13-96A36.26,36.26,0,0,0,189.87,127.93Z"/><path class="cls-14" d="M270.56,577.56,125.33,637a36.27,36.27,0,0,0-22.2,28.7L82,821.26a36.28,36.28,0,0,0,13.76,33.58l124.12,96a36.31,36.31,0,0,0,36,4.88L401.1,896.28a36.31,36.31,0,0,0,22.2-28.71l21.11-155.51a36.31,36.31,0,0,0-13.76-33.59l-124.12-96A36.33,36.33,0,0,0,270.56,577.56Z"/><path class="cls-15" d="M963,243.46l-172-91a45,45,0,0,0-45,1.66L581.22,257.62a45,45,0,0,0-21,39.77l7.22,194.44a45,45,0,0,0,23.92,38.11l172,91a45,45,0,0,0,45-1.66L973.06,515.78a45,45,0,0,0,21-39.77l-7.21-194.44A45,45,0,0,0,963,243.46Z"/><g class="cls-12"><path class="cls-16" d="M762.74,615.28a51.12,51.12,0,0,1-31.26-10.65l-171.91-133a51.12,51.12,0,0,1-19.32-47.19l29.22-215.38a51.16,51.16,0,0,1,31.21-40.34L801.82,86.35a51.12,51.12,0,0,1,50.53,6.85l171.91,133a51.15,51.15,0,0,1,19.33,47.2l-29.23,215.38a51.14,51.14,0,0,1-31.2,40.33L782,611.49A50.9,50.9,0,0,1,762.74,615.28ZM802.38,87.71,601.24,170.09a49.64,49.64,0,0,0-30.3,39.17L541.71,424.63a49.66,49.66,0,0,0,18.77,45.83l171.91,133a49.65,49.65,0,0,0,49.07,6.66L982.6,527.75a49.67,49.67,0,0,0,30.3-39.17l29.23-215.38a49.66,49.66,0,0,0-18.77-45.83l-171.91-133a49.67,49.67,0,0,0-49.07-6.66Z"/></g><path class="cls-17" d="M928.94,370.34,866.72,258.52a29.62,29.62,0,0,0-25.39-15.2l-127.94-2a29.58,29.58,0,0,0-25.85,14.39L621.81,365.48a29.6,29.6,0,0,0-.47,29.59l62.22,111.81A29.62,29.62,0,0,0,709,522.08l127.94,2a29.59,29.59,0,0,0,25.86-14.39l65.72-109.79A29.58,29.58,0,0,0,928.94,370.34Z"/><path class="cls-18" d="M834.17,440.55l23.36-64.44a15.86,15.86,0,0,0-2.78-15.6l-44.12-52.45a15.86,15.86,0,0,0-14.9-5.4l-67.48,12a15.85,15.85,0,0,0-12.13,10.2l-23.36,64.44a15.85,15.85,0,0,0,2.77,15.6l44.13,52.45a15.85,15.85,0,0,0,14.9,5.4l67.48-12A15.86,15.86,0,0,0,834.17,440.55Z"/><g class="cls-12"><path class="cls-19" d="M769.37,535.11a30.13,30.13,0,0,1-16-4.56L645.74,463.27a30.17,30.17,0,0,1-14.13-26.58L636,309.81a30.18,30.18,0,0,1,16-25.53l112.1-59.6a30.16,30.16,0,0,1,30.08,1L901.84,293A30.18,30.18,0,0,1,916,319.58l-4.43,126.89A30.15,30.15,0,0,1,895.59,472L783.49,531.6A30.13,30.13,0,0,1,769.37,535.11ZM764.78,226l-112.1,59.61a28.7,28.7,0,0,0-15.17,24.27l-4.43,126.89A28.73,28.73,0,0,0,646.52,462L754.19,529.3a28.73,28.73,0,0,0,28.61,1l112.1-59.61a28.72,28.72,0,0,0,15.17-24.27l4.43-126.89a28.72,28.72,0,0,0-13.44-25.27L793.38,227a28.71,28.71,0,0,0-28.6-1Z"/></g><path class="cls-20" d="M299.45,960.16l129.86-93a36.92,36.92,0,0,0,15.25-33.64L429,674.56a36.93,36.93,0,0,0-21.5-30L262,578.57a36.92,36.92,0,0,0-36.76,3.61l-129.86,93a36.94,36.94,0,0,0-15.25,33.64l15.6,159a36.93,36.93,0,0,0,21.51,30l145.47,66A37,37,0,0,0,299.45,960.16Z"/><path class="cls-21" d="M176.64,895.92l110.14,18.22A25.84,25.84,0,0,0,311,905.05l70.85-86.28A25.82,25.82,0,0,0,386,793.3L346.72,688.8a25.81,25.81,0,0,0-20-16.38L216.62,654.2a25.81,25.81,0,0,0-24.16,9.08L121.6,749.56A25.82,25.82,0,0,0,117.39,775l39.29,104.5A25.84,25.84,0,0,0,176.64,895.92Z"/><path class="cls-22" d="M101.7,451.85l116.9,44.86a29,29,0,0,0,28.6-4.54l97.3-78.81a28.94,28.94,0,0,0,10.37-27l-19.6-123.67A29,29,0,0,0,317,240.17l-116.9-44.86a28.93,28.93,0,0,0-28.59,4.53l-97.3,78.81a29,29,0,0,0-10.37,27l19.6,123.67A29,29,0,0,0,101.7,451.85Z"/><path class="cls-23" d="M112.07,365.77l48.37,66.63a19.07,19.07,0,0,0,17.4,7.76l81.89-8.58a19,19,0,0,0,15.41-11.19l33.52-75.21a19,19,0,0,0-2-18.93L258.3,259.61a19,19,0,0,0-17.39-7.75L159,260.43a19.05,19.05,0,0,0-15.41,11.19l-33.52,75.21A19,19,0,0,0,112.07,365.77Z"/></g><rect class="cls-24" x="141.74" y="258.83" width="750" height="500"/></g></g></g></svg>